
<svg version="1.1" xmlns="http://www.w3.org/2000/svg" viewBox="0 0 126.2804069784379 94.4503849675134" width="252.5608139568758" height="188.9007699350268">
  <!-- svg-source:excalidraw -->
  
  <defs>
    <style class="style-fonts">
      @font-face {
        font-family: "Virgil";
        src: url("https://excalidraw.com/Virgil.woff2");
      }
      @font-face {
        font-family: "Cascadia";
        src: url("https://excalidraw.com/Cascadia.woff2");
      }
      @font-face {
        font-family: "Assistant";
        src: url("https://excalidraw.com/Assistant-Regular.woff2");
      }
    </style>
    
  </defs>
  <g stroke-linecap="round"><g transform="translate(98.19592182526503 34.711171182145335) rotate(0 -34.749438682368236 17.74394531382609)" fill-rule="evenodd"><path d="M1.4 0.24 C1.45 -0.38, -0.31 -3.2, -1.98 -4.74 C-3.65 -6.28, -7.15 -7.21, -8.62 -8.98 C-10.09 -10.76, -9.24 -16.11, -10.79 -15.38 C-12.34 -14.65, -17.03 -7.69, -17.93 -4.61 C-18.82 -1.52, -17.14 1.55, -16.18 3.14 C-15.22 4.73, -11.8 4.39, -12.17 4.92 C-12.54 5.46, -15.38 5.4, -18.42 6.37 C-21.45 7.35, -26.51 10.73, -30.39 10.78 C-34.28 10.83, -34.52 6.7, -41.73 6.68 C-48.94 6.65, -66.58 10.23, -73.64 10.63 C-80.69 11.04, -82.09 7.81, -84.06 9.11 C-86.02 10.42, -85.86 15.52, -85.43 18.44 C-84.99 21.37, -82.88 23.42, -81.45 26.68 C-80.02 29.94, -79.85 34.79, -76.85 38.01 C-73.85 41.22, -67.3 43.78, -63.47 45.96 C-59.65 48.13, -59.16 51.02, -53.91 51.06 C-48.67 51.09, -38.09 47.59, -32.01 46.18 C-25.94 44.76, -21.85 45.23, -17.45 42.56 C-13.05 39.9, -8.19 33.96, -5.64 30.18 C-3.09 26.4, -3.09 22.43, -2.15 19.89 C-1.21 17.34, -1.33 16.05, 0 14.91 C1.34 13.76, 3.47 14.48, 5.85 13.01 C8.22 11.55, 11.92 7.74, 14.27 6.12 C16.62 4.5, 20.65 4.76, 19.96 3.29 C19.28 1.82, 12.32 -2.08, 10.17 -2.7 C8.01 -3.32, 8.94 -1.25, 7.03 -0.41 C5.11 0.42, 0.06 2.41, -1.33 2.29" stroke="none" stroke-width="0" fill="#228be6" fill-rule="evenodd"></path><path d="M-0.03 1.05 C-0.46 0.25, -1.88 -3.34, -3.21 -5.26 C-4.53 -7.17, -6.5 -9.2, -7.98 -10.44 C-9.45 -11.68, -10.56 -13.62, -12.07 -12.71 C-13.59 -11.81, -16.55 -7.15, -17.05 -5.03 C-17.56 -2.9, -16.22 -1.99, -15.11 0.06 C-14.01 2.11, -10.12 5.88, -10.42 7.27 C-10.73 8.66, -13.97 7.93, -16.94 8.37 C-19.92 8.81, -24.03 9.8, -28.26 9.9 C-32.49 10, -34.69 9.16, -42.31 8.97 C-49.93 8.78, -66.71 8.67, -74 8.78 C-81.28 8.88, -83.8 8.18, -86.03 9.62 C-88.26 11.06, -87.63 14.08, -87.4 17.42 C-87.17 20.76, -86.79 25.79, -84.66 29.65 C-82.54 33.51, -77.98 37.81, -74.66 40.56 C-71.34 43.32, -68.4 44.65, -64.74 46.17 C-61.08 47.7, -57.9 49.56, -52.71 49.72 C-47.51 49.89, -39.44 48.67, -33.57 47.15 C-27.69 45.63, -21.97 43.31, -17.47 40.59 C-12.97 37.87, -9.11 34.25, -6.58 30.84 C-4.05 27.43, -3.39 23.06, -2.29 20.11 C-1.18 17.16, -1.43 14.51, 0.07 13.13 C1.57 11.74, 4.41 12.74, 6.71 11.8 C9.01 10.86, 12.15 8.79, 13.85 7.49 C15.55 6.18, 17.19 5.4, 16.91 3.97 C16.63 2.55, 14.16 -0.22, 12.17 -1.05 C10.18 -1.87, 7.09 -1.01, 4.95 -0.96 C2.81 -0.9, 0.34 -1.05, -0.66 -0.72 M-1.5 0.56 C-1.52 -0.54, -0.33 -4.8, -1.03 -6.95 C-1.72 -9.1, -3.36 -11.61, -5.68 -12.35 C-8 -13.09, -13.3 -12.16, -14.94 -11.39 C-16.57 -10.62, -15.59 -10.01, -15.48 -7.73 C-15.37 -5.45, -15.21 -0.05, -14.27 2.31 C-13.34 4.67, -9.79 5.5, -9.87 6.42 C-9.95 7.34, -11.47 7.42, -14.76 7.84 C-18.06 8.26, -25.14 8.82, -29.62 8.94 C-34.09 9.05, -33.77 8.39, -41.63 8.51 C-49.48 8.63, -69.16 9.52, -76.76 9.64 C-84.37 9.77, -85.51 8.03, -87.24 9.24 C-88.97 10.46, -87.98 13.49, -87.16 16.94 C-86.33 20.39, -84.39 26.09, -82.27 29.95 C-80.16 33.81, -77.5 37.2, -74.45 40.1 C-71.39 43, -67.88 46.12, -63.93 47.34 C-59.99 48.56, -55.68 47.35, -50.79 47.4 C-45.9 47.44, -39.94 48.69, -34.59 47.61 C-29.25 46.54, -22.95 43.5, -18.72 40.96 C-14.49 38.41, -11.74 36.01, -9.21 32.36 C-6.68 28.71, -5.08 22.42, -3.55 19.04 C-2.01 15.66, -1.69 13.42, -0.01 12.09 C1.67 10.77, 3.97 11.49, 6.51 11.09 C9.05 10.7, 13.3 10.79, 15.22 9.73 C17.14 8.66, 18.37 6.5, 18.03 4.7 C17.69 2.89, 15.12 -0.15, 13.18 -1.08 C11.24 -2.02, 8.52 -1.25, 6.39 -0.91 C4.26 -0.58, 1.7 0.88, 0.39 0.93" stroke="#000000" stroke-width="1" fill="none"></path></g></g><mask></mask><g stroke-linecap="round" transform="translate(19.738915956977507 32.35926997185106) rotate(0 4.992462615795375 4.755103061954287)"><path d="M-0.59 0.54 L9.37 -0.28 L10.37 9.58 L0.06 9.87" stroke="none" stroke-width="0" fill="#228be6"></path><path d="M0 0 C3.2 -0.29, 6.17 0.32, 9.98 0 M0 0 C3.19 -0.13, 6.65 0.1, 9.98 0 M9.98 0 C10.18 2.12, 9.97 4.62, 9.98 9.51 M9.98 0 C10 2.76, 9.85 5.47, 9.98 9.51 M9.98 9.51 C7.13 9.24, 4.67 9.63, 0 9.51 M9.98 9.51 C6.98 9.42, 3.64 9.55, 0 9.51 M0 9.51 C0.07 7.07, -0.29 4.63, 0 0 M0 9.51 C0 6.13, -0.08 2.4, 0 0" stroke="#000000" stroke-width="1" fill="none"></path></g><g stroke-linecap="round" transform="translate(31.274590273666036 32.21685423954659) rotate(0 4.794662987594165 4.794662987594393)"><path d="M-0.62 -0.28 L9.97 0.07 L9.65 9.95 L-0.49 10.21" stroke="none" stroke-width="0" fill="#228be6"></path><path d="M0 0 C2.29 0.31, 4.24 -0.28, 9.59 0 M0 0 C3.71 0.14, 7.35 -0.03, 9.59 0 M9.59 0 C9.61 3.65, 9.55 6.82, 9.59 9.59 M9.59 0 C9.45 3.08, 9.56 5.93, 9.59 9.59 M9.59 9.59 C7.35 9.69, 4.57 9.63, 0 9.59 M9.59 9.59 C6.5 9.6, 3.41 9.65, 0 9.59 M0 9.59 C-0.28 6.71, 0.21 4.3, 0 0 M0 9.59 C-0.09 6.44, -0.14 3.61, 0 0" stroke="#000000" stroke-width="1" fill="none"></path></g><g stroke-linecap="round" transform="translate(42.73114473907299 32.375093942107014) rotate(0 4.715543136314409 4.715543136313954)"><path d="M0.38 0.07 L9.49 0.36 L8.94 10.05 L0.64 8.82" stroke="none" stroke-width="0" fill="#228be6"></path><path d="M0 0 C2.04 -0.33, 4.15 -0.31, 9.43 0 M0 0 C2.16 -0.07, 4.63 0.08, 9.43 0 M9.43 0 C9.37 2.81, 9.46 5.42, 9.43 9.43 M9.43 0 C9.37 3.37, 9.35 6.66, 9.43 9.43 M9.43 9.43 C7.38 9.51, 5.29 9.71, 0 9.43 M9.43 9.43 C7.05 9.52, 4.8 9.48, 0 9.43 M0 9.43 C0.24 6.93, 0.08 4.56, 0 0 M0 9.43 C-0.12 6, -0.13 2.25, 0 0" stroke="#000000" stroke-width="1" fill="none"></path></g><g stroke-linecap="round" transform="translate(53.87121979935728 32.28015012057131) rotate(0 4.715543136314409 4.715543136313954)"><path d="M0.06 0.36 L8.94 0.62 L10.07 8.82 L-0.55 9.84" stroke="none" stroke-width="0" fill="#228be6"></path><path d="M0 0 C3.93 -0.25, 7.12 -0.01, 9.43 0 M0 0 C3.65 0.11, 7.12 0.01, 9.43 0 M9.43 0 C9.45 3.69, 9.6 7.08, 9.43 9.43 M9.43 0 C9.37 3.54, 9.3 7.26, 9.43 9.43 M9.43 9.43 C6.27 9.7, 2.83 9.35, 0 9.43 M9.43 9.43 C6.38 9.49, 3.36 9.31, 0 9.43 M0 9.43 C0.04 7.39, 0.22 5.21, 0 0 M0 9.43 C-0.12 7.11, 0.12 4.93, 0 0" stroke="#000000" stroke-width="1" fill="none"></path></g><g stroke-linecap="round" transform="translate(65.15371059195058 32.375093942107014) rotate(0 4.715543136314409 4.715543136313954)"><path d="M-0.49 0.62 L10.07 -0.62 L8.88 9.84 L-0.59 10.08" stroke="none" stroke-width="0" fill="#228be6"></path><path d="M0 0 C1.73 -0.02, 4.07 -0.2, 9.43 0 M0 0 C2.52 -0.02, 5.23 -0.05, 9.43 0 M9.43 0 C9.6 2.85, 9.68 6.21, 9.43 9.43 M9.43 0 C9.3 3.12, 9.48 5.97, 9.43 9.43 M9.43 9.43 C6.22 9.37, 3.43 9.28, 0 9.43 M9.43 9.43 C6.07 9.31, 2.7 9.55, 0 9.43 M0 9.43 C0.24 6.65, -0.2 3.93, 0 0 M0 9.43 C0.12 5.85, 0.04 2.33, 0 0" stroke="#000000" stroke-width="1" fill="none"></path></g><g stroke-linecap="round" transform="translate(53.728804067053716 21.1400750602852) rotate(0 4.794662987594165 4.794662987594393)"><path d="M0.64 -0.62 L9.03 0.41 L9 10.24 L-0.52 9.21" stroke="none" stroke-width="0" fill="#228be6"></path><path d="M0 0 C2.26 -0.23, 3.92 0.16, 9.59 0 M0 0 C3.65 -0.03, 7.07 0.01, 9.59 0 M9.59 0 C9.85 2.84, 9.65 5.69, 9.59 9.59 M9.59 0 C9.63 2.77, 9.6 5.52, 9.59 9.59 M9.59 9.59 C5.96 9.4, 2.37 9.49, 0 9.59 M9.59 9.59 C6.33 9.67, 3.31 9.59, 0 9.59 M0 9.59 C-0.22 6.47, 0.23 3.61, 0 0 M0 9.59 C0 7.2, -0.13 4.78, 0 0" stroke="#000000" stroke-width="1" fill="none"></path></g><g stroke-linecap="round" transform="translate(43.00015223342598 21.69391401924895) rotate(0 4.557303433753077 4.557303433753077)"><path d="M-0.55 0.41 L8.53 0.65 L8.59 8.73 L-0.64 8.47" stroke="none" stroke-width="0" fill="#228be6"></path><path d="M0 0 C2.51 0.17, 5.41 -0.02, 9.11 0 M0 0 C2.77 0.02, 5.45 0.09, 9.11 0 M9.11 0 C9.18 1.8, 9.1 3.59, 9.11 9.11 M9.11 0 C9.16 3.61, 9.26 7.07, 9.11 9.11 M9.11 9.11 C6.78 9.01, 4.23 8.97, 0 9.11 M9.11 9.11 C7.12 9.16, 5.19 9.25, 0 9.11 M0 9.11 C0.26 6.6, -0.11 4.82, 0 0 M0 9.11 C-0.11 6.43, 0.14 3.33, 0 0" stroke="#000000" stroke-width="1" fill="none"></path></g><g stroke-linecap="round" transform="translate(31.46447791673745 21.614794167968284) rotate(0 4.557303433753077 4.557303433753077)"><path d="M-0.59 0.65 L8.59 -0.38 L8.48 8.47 L-0.42 9.57" stroke="none" stroke-width="0" fill="#228be6"></path><path d="M0 0 C2.28 -0.05, 4.15 0.26, 9.11 0 M0 0 C2.57 0.08, 4.99 0.12, 9.11 0 M9.11 0 C9.08 2.33, 9.4 5.25, 9.11 9.11 M9.11 0 C9.25 2.79, 9.08 5.78, 9.11 9.11 M9.11 9.11 C6.98 8.98, 4.44 8.85, 0 9.11 M9.11 9.11 C5.75 9.24, 2.31 9.03, 0 9.11 M0 9.11 C-0.15 7.35, 0.01 5.27, 0 0 M0 9.11 C0.17 5.74, -0.1 2.74, 0 0" stroke="#000000" stroke-width="1" fill="none"></path></g><g stroke-linecap="round" transform="translate(53.570564364492384 10) rotate(0 4.794662987594165 4.794662987594393)"><path d="M-0.52 -0.38 L8.95 -0.64 L9.17 10.04 L0.12 8.96" stroke="none" stroke-width="0" fill="#228be6"></path><path d="M0 0 C3.35 0.29, 6.66 0.11, 9.59 0 M0 0 C2.81 0.11, 5.88 0.01, 9.59 0 M9.59 0 C9.88 2.66, 9.63 5.13, 9.59 9.59 M9.59 0 C9.57 3.07, 9.52 6.17, 9.59 9.59 M9.59 9.59 C6.71 9.3, 4.59 9.5, 0 9.59 M9.59 9.59 C6.45 9.52, 3.34 9.74, 0 9.59 M0 9.59 C0.04 7.63, 0.19 5.38, 0 0 M0 9.59 C-0.16 5.92, -0.17 2.2, 0 0" stroke="#000000" stroke-width="1" fill="none"></path></g></svg>