<svg version="1.1" xmlns="http://www.w3.org/2000/svg" viewBox="0 0 74.17031731651332 85.98466200933444" width="148.34063463302664" height="171.96932401866889">
  <!-- svg-source:excalidraw -->
  
  <defs>
    <style class="style-fonts">
      @font-face {
        font-family: "Virgil";
        src: url("https://excalidraw.com/Virgil.woff2");
      }
      @font-face {
        font-family: "Cascadia";
        src: url("https://excalidraw.com/Cascadia.woff2");
      }
      @font-face {
        font-family: "Assistant";
        src: url("https://excalidraw.com/Assistant-Regular.woff2");
      }
    </style>
    
  </defs>
  <g stroke-linecap="round"><g transform="translate(64.17031731651332 10.619817399646308) rotate(0 -16.116004711925598 11.179059606511828)" fill-rule="evenodd"><path d="M-0.08 -0.63 L-31.63 -0.16 L-25.1 21.46 L-15.57 8.11 L-8.43 22.25 L-0.79 -0.7" stroke="none" stroke-width="0" fill="#c53c12" fill-rule="evenodd"></path><path d="M0 0 C-8.24 -0.73, -14.02 -0.83, -32.23 -0.23 M0 0 C-13.29 -0.67, -25.93 0.07, -32.23 -0.23 M-32.23 -0.23 C-29.15 7.81, -27.46 14.76, -24.29 22.13 M-32.23 -0.23 C-29.7 7.56, -26.11 16.21, -24.29 22.13 M-24.29 22.13 C-22.94 19.05, -20.24 16.49, -16.34 7.38 M-24.29 22.13 C-22.46 18.92, -20.59 15.15, -16.34 7.38 M-16.34 7.38 C-13.91 11.04, -12.01 17.07, -8.06 22.59 M-16.34 7.38 C-13.63 12.62, -10.16 18.03, -8.06 22.59 M-8.06 22.59 C-6.23 15.92, -2.76 10.21, 0 0 M-8.06 22.59 C-6.24 17.08, -4.15 12.5, 0 0 M0 0 C0 0, 0 0, 0 0 M0 0 C0 0, 0 0, 0 0" stroke="#1e1e1e" stroke-width="1" fill="none"></path></g></g><mask></mask><g stroke-linecap="round" transform="translate(53.72896215104083 36.15574035868303) rotate(0 4.539719637162307 4.42622664623309)"><path d="M4.71 -0.02 C5.64 -0.05, 6.41 0.51, 7.15 1.13 C7.88 1.76, 8.91 2.82, 9.11 3.75 C9.3 4.69, 8.82 5.95, 8.32 6.76 C7.82 7.57, 6.95 8.3, 6.1 8.61 C5.26 8.93, 4.12 8.94, 3.23 8.64 C2.35 8.34, 1.3 7.63, 0.79 6.8 C0.27 5.98, -0.03 4.7, 0.13 3.7 C0.28 2.71, 1.01 1.47, 1.71 0.84 C2.42 0.22, 3.92 0.07, 4.37 -0.03 C4.82 -0.12, 4.39 0.26, 4.42 0.29 M3.85 -0.14 C4.63 -0.42, 5.8 -0.22, 6.66 0.39 C7.51 1, 8.62 2.49, 8.99 3.51 C9.36 4.52, 9.23 5.7, 8.89 6.48 C8.55 7.26, 7.9 7.81, 6.97 8.21 C6.04 8.61, 4.31 9.01, 3.33 8.89 C2.36 8.77, 1.71 8.33, 1.13 7.49 C0.55 6.65, -0.09 4.88, -0.15 3.83 C-0.2 2.78, 0.14 1.89, 0.81 1.21 C1.49 0.53, 3.39 -0.07, 3.9 -0.23 C4.42 -0.38, 3.84 0.21, 3.89 0.28" stroke="none" stroke-width="0" fill="#c53c12"></path><path d="M3.69 -0.27 C4.48 -0.45, 5.7 -0.11, 6.6 0.45 C7.5 1.01, 8.77 2.12, 9.07 3.09 C9.38 4.06, 8.8 5.33, 8.45 6.25 C8.09 7.18, 7.73 8.18, 6.92 8.64 C6.11 9.11, 4.52 9.23, 3.57 9.04 C2.62 8.84, 1.85 8.31, 1.21 7.46 C0.57 6.62, -0.21 4.95, -0.28 3.97 C-0.34 3, 0.13 2.3, 0.82 1.6 C1.52 0.9, 3.31 -0.05, 3.9 -0.25 C4.49 -0.45, 4.37 0.27, 4.37 0.39 M5.17 0.05 C6 0.25, 7.18 1.22, 7.79 1.98 C8.4 2.74, 8.78 3.84, 8.83 4.62 C8.88 5.41, 8.57 6, 8.07 6.69 C7.58 7.39, 6.89 8.57, 5.86 8.79 C4.83 9.01, 2.76 8.43, 1.91 8.02 C1.05 7.62, 1.06 7.1, 0.73 6.35 C0.41 5.59, -0.23 4.48, -0.04 3.49 C0.16 2.5, 0.98 1.05, 1.9 0.43 C2.83 -0.2, 4.98 -0.14, 5.5 -0.26 C6.03 -0.37, 5.03 -0.35, 5.05 -0.26" stroke="#1e1e1e" stroke-width="1" fill="none"></path></g><g stroke-linecap="round" transform="translate(33.30022378381 36.15574035868303) rotate(0 4.539719637162307 4.42622664623309)"><path d="M4.11 0.16 C5.01 0.1, 6.65 0.52, 7.42 1.11 C8.2 1.69, 8.6 2.77, 8.78 3.68 C8.96 4.58, 8.88 5.73, 8.49 6.54 C8.09 7.35, 7.29 8.18, 6.42 8.54 C5.56 8.91, 4.24 9.03, 3.3 8.73 C2.35 8.43, 1.3 7.61, 0.78 6.75 C0.27 5.9, 0.11 4.53, 0.2 3.59 C0.29 2.65, 0.64 1.7, 1.31 1.13 C1.98 0.57, 3.67 0.42, 4.2 0.2 C4.73 -0.02, 4.5 -0.26, 4.5 -0.18 M4.7 -0.32 C5.67 -0.18, 7.19 0.94, 7.95 1.74 C8.71 2.54, 9.16 3.62, 9.26 4.48 C9.37 5.34, 9.22 6.17, 8.57 6.91 C7.93 7.65, 6.4 8.58, 5.42 8.9 C4.44 9.22, 3.59 9.32, 2.72 8.81 C1.85 8.3, 0.7 6.81, 0.21 5.84 C-0.29 4.86, -0.53 3.86, -0.24 2.97 C0.05 2.07, 1.08 0.92, 1.94 0.46 C2.8 0, 4.39 0.3, 4.94 0.2 C5.5 0.1, 5.22 -0.19, 5.25 -0.13" stroke="none" stroke-width="0" fill="#c53c12"></path><path d="M3.63 -0.17 C4.61 -0.28, 6.39 0.17, 7.21 0.75 C8.03 1.33, 8.26 2.35, 8.56 3.29 C8.85 4.24, 9.28 5.56, 8.96 6.44 C8.63 7.33, 7.44 8.19, 6.58 8.63 C5.72 9.06, 4.77 9.34, 3.78 9.04 C2.8 8.73, 1.34 7.57, 0.66 6.79 C-0.03 6.01, -0.4 5.29, -0.32 4.34 C-0.24 3.4, 0.36 1.82, 1.14 1.14 C1.92 0.47, 3.88 0.47, 4.36 0.31 C4.84 0.14, 4 0.07, 4 0.15 M3.97 0.5 C4.85 0.42, 6.06 0.72, 6.88 1.1 C7.71 1.48, 8.54 1.91, 8.9 2.78 C9.27 3.64, 9.56 5.42, 9.08 6.31 C8.59 7.2, 6.89 7.69, 6.01 8.14 C5.13 8.59, 4.71 9.12, 3.8 9.01 C2.89 8.89, 1.23 8.31, 0.56 7.45 C-0.11 6.58, -0.42 4.91, -0.25 3.83 C-0.07 2.76, 0.91 1.7, 1.61 1 C2.32 0.3, 3.48 -0.19, 3.98 -0.38 C4.47 -0.57, 4.6 -0.32, 4.59 -0.11" stroke="#1e1e1e" stroke-width="1" fill="none"></path></g><g stroke-linecap="round" transform="translate(12.644499434720274 36.26923334961248) rotate(0 4.539719637162307 4.42622664623309)"><path d="M4.61 0.19 C5.54 0.13, 6.51 0.63, 7.23 1.21 C7.95 1.79, 8.69 2.77, 8.93 3.67 C9.16 4.58, 9.09 5.8, 8.65 6.63 C8.21 7.46, 7.19 8.33, 6.26 8.66 C5.34 8.98, 4.02 8.93, 3.1 8.56 C2.19 8.18, 1.33 7.24, 0.79 6.43 C0.26 5.61, -0.21 4.53, -0.11 3.67 C-0.01 2.81, 0.59 1.92, 1.38 1.26 C2.17 0.61, 4.1 -0.12, 4.62 -0.27 C5.14 -0.42, 4.44 0.25, 4.48 0.35 M4.38 0.34 C5.39 0.34, 6.61 0.68, 7.45 1.16 C8.28 1.64, 9.2 2.33, 9.37 3.23 C9.54 4.13, 8.92 5.63, 8.45 6.58 C7.99 7.53, 7.47 8.64, 6.57 8.93 C5.68 9.22, 4.12 8.72, 3.08 8.35 C2.03 7.97, 0.83 7.47, 0.31 6.69 C-0.22 5.91, -0.26 4.54, -0.1 3.65 C0.07 2.76, 0.52 2.02, 1.28 1.37 C2.04 0.72, 3.94 -0.04, 4.45 -0.24 C4.97 -0.44, 4.32 0.12, 4.37 0.17" stroke="none" stroke-width="0" fill="#c53c12"></path><path d="M4.05 0.11 C4.95 -0.02, 5.72 0.29, 6.55 0.82 C7.39 1.35, 8.69 2.39, 9.05 3.3 C9.41 4.21, 9.07 5.4, 8.73 6.28 C8.38 7.16, 7.86 8.22, 6.98 8.58 C6.09 8.94, 4.45 8.65, 3.41 8.44 C2.36 8.24, 1.27 8.06, 0.69 7.33 C0.12 6.6, -0.17 4.99, -0.05 4.07 C0.07 3.15, 0.8 2.47, 1.44 1.81 C2.08 1.14, 3.3 0.32, 3.77 0.08 C4.24 -0.15, 4.25 0.33, 4.24 0.39 M4.29 0.31 C5.24 0.09, 6.58 -0.02, 7.44 0.55 C8.29 1.11, 9.33 2.72, 9.42 3.69 C9.52 4.65, 8.49 5.48, 8.01 6.35 C7.52 7.21, 7.39 8.43, 6.51 8.89 C5.63 9.34, 3.74 9.47, 2.72 9.05 C1.69 8.64, 0.74 7.37, 0.34 6.42 C-0.05 5.47, 0.17 4.32, 0.36 3.35 C0.55 2.39, 0.7 1.23, 1.47 0.64 C2.24 0.04, 4.53 -0.2, 4.99 -0.22 C5.46 -0.24, 4.36 0.47, 4.28 0.52" stroke="#1e1e1e" stroke-width="1" fill="none"></path></g><g stroke-linecap="round"><g transform="translate(45.34005153698308 44.86613531998228) rotate(0 -8.727829019098863 15.556972427025812)" fill-rule="evenodd"><path d="M-1.78 -0.83 L5.74 1.3 L3.91 2.86 L8.27 5.35 L8.52 8.12 L11.88 7.78 L13.46 6.79 L18.79 7.06 L18.64 8.5 L17.89 10.73 L17.68 14.47 L12.65 20.49 L11.04 21.02 L4.63 20.98 L-2.69 22.31 L-7.77 25.06 L-15.03 29.49 L-18.45 28.64 L-24.12 31.52 L-30.83 29.78 L-33.04 28.52 L-35.07 25.5 L-33.83 19.58 L-33.08 15.57 L-35.17 11.47 L-30.7 6.43 L-28.66 7.39 L-29.63 7.79 L-30.87 10.01 L-28.9 12.7 L-25.69 17.82 L-22.98 21.04 L-16.09 16.69 L-10.66 14.38 L-10.8 6.2 L-8.74 6.23 L-6.31 5.83 L-1.58 6.85 L-0.64 1.43 L1.83 1.96" stroke="none" stroke-width="0" fill="#c53c12" fill-rule="evenodd"></path><path d="M0 0 C0.63 -0.27, 2.57 0.14, 5.02 0 M0 0 C1.27 -0.08, 2.27 0.14, 5.02 0 M5.02 0 C4.73 1.08, 4.91 1.77, 4.96 2.57 M5.02 0 C5.03 1.14, 5.1 1.99, 4.96 2.57 M4.96 2.57 C5.65 3.11, 5.99 3.89, 6.43 4.84 M4.96 2.57 C5.15 2.95, 5.69 3.57, 6.43 4.84 M6.43 4.84 C6.7 5.27, 7.02 5.42, 7.84 6.12 M6.43 4.84 C6.7 5.21, 7.05 5.34, 7.84 6.12 M7.84 6.12 C8.42 6.63, 9.54 7.01, 10.72 7.41 M7.84 6.12 C8.57 6.52, 9.25 6.81, 10.72 7.41 M10.72 7.41 C12.01 7.31, 12.78 7.71, 14.15 7.9 M10.72 7.41 C11.39 7.41, 12.48 7.77, 14.15 7.9 M14.15 7.9 C14.73 7.65, 15.98 7.38, 17.21 6.61 M14.15 7.9 C15.18 7.51, 16.4 7.14, 17.21 6.61 M17.21 6.61 C17.3 7.19, 17.44 7.8, 17.88 8.94 M17.21 6.61 C17.46 7.41, 17.78 8.07, 17.88 8.94 M17.88 8.94 C17.64 9.64, 17.67 10.93, 17.88 12.37 M17.88 8.94 C17.88 9.78, 18.03 10.84, 17.88 12.37 M17.88 12.37 C17.61 13.31, 17.29 13.87, 16.78 15.86 M17.88 12.37 C17.61 13.4, 17.36 14.57, 16.78 15.86 M16.78 15.86 C16.01 17.04, 14.28 17.91, 13.29 18.8 M16.78 15.86 C16.09 16.75, 14.94 17.36, 13.29 18.8 M13.29 18.8 C12.05 19.58, 11.38 19.79, 9.37 20.4 M13.29 18.8 C11.89 19.22, 10.13 19.91, 9.37 20.4 M9.37 20.4 C7.85 20.6, 6.75 20.95, 4.1 20.95 M9.37 20.4 C7.41 20.83, 5.59 20.73, 4.1 20.95 M4.1 20.95 C2.93 20.89, 1.28 21.81, -1.65 22.11 M4.1 20.95 C3.09 21.16, 1.54 21.68, -1.65 22.11 M-1.65 22.11 C-2.59 22.5, -3.74 22.6, -6.19 24.07 M-1.65 22.11 C-3.22 22.58, -4.83 23.23, -6.19 24.07 M-6.19 24.07 C-7.49 24.47, -9.51 25.53, -13.72 27.56 M-6.19 24.07 C-8.14 25.16, -10.49 26.13, -13.72 27.56 M-13.72 27.56 C-16.07 27.96, -17.44 29.85, -20.4 30.5 M-13.72 27.56 C-15.27 28.15, -16.85 29.01, -20.4 30.5 M-20.4 30.5 C-21.68 30.45, -22.13 30.48, -24.87 31.11 M-20.4 30.5 C-21.66 30.54, -23.06 31.06, -24.87 31.11 M-24.87 31.11 C-26.02 30.95, -27 31.18, -28.85 30.69 M-24.87 31.11 C-25.99 31.14, -26.8 31.07, -28.85 30.69 M-28.85 30.69 C-29.43 30.54, -30.42 29.97, -32.09 28.3 M-28.85 30.69 C-29.46 30.3, -30.29 29.5, -32.09 28.3 M-32.09 28.3 C-32.38 27.55, -33.69 26.62, -34.61 24.07 M-32.09 28.3 C-32.68 27.18, -33.46 26.26, -34.61 24.07 M-34.61 24.07 C-34.74 22.36, -35.17 20.29, -35.34 19.6 M-34.61 24.07 C-34.86 22.57, -35.09 20.59, -35.34 19.6 M-35.34 19.6 C-34.87 17.47, -34.46 15.67, -34.48 14.82 M-35.34 19.6 C-35 17.9, -34.77 16.34, -34.48 14.82 M-34.48 14.82 C-34.28 13.69, -33.94 12.54, -33.2 11.21 M-34.48 14.82 C-34.08 13.82, -33.86 12.68, -33.2 11.21 M-33.2 11.21 C-32.52 10.05, -31.96 9.54, -31.24 7.78 M-33.2 11.21 C-32.52 10.04, -32.01 9.27, -31.24 7.78 M-31.24 7.78 C-30.67 7.86, -29.93 7.78, -29.15 7.72 M-31.24 7.78 C-30.66 7.69, -29.91 7.73, -29.15 7.72 M-29.15 7.72 C-29.19 8.29, -29.33 8.74, -29.46 9.06 M-29.15 7.72 C-29.23 8.21, -29.38 8.65, -29.46 9.06 M-29.46 9.06 C-29.52 9.76, -29.47 10.5, -29.71 11.21 M-29.46 9.06 C-29.62 9.87, -29.6 10.57, -29.71 11.21 M-29.71 11.21 C-29.2 11.88, -29.31 12.73, -29.09 14.15 M-29.71 11.21 C-29.43 12.07, -29.38 12.84, -29.09 14.15 M-29.09 14.15 C-27.8 15.53, -27.43 16.47, -26.64 17.58 M-29.09 14.15 C-28.79 14.69, -28.09 15.57, -26.64 17.58 M-26.64 17.58 C-25.89 18.09, -24.43 18.91, -23.52 19.29 M-26.64 17.58 C-25.8 17.89, -25.06 18.36, -23.52 19.29 M-23.52 19.29 C-21.33 17.73, -18.6 16.52, -16.84 16.11 M-23.52 19.29 C-21.78 18.57, -19.4 17.35, -16.84 16.11 M-16.84 16.11 C-16.1 14.66, -13.97 13.91, -12.43 12.49 M-16.84 16.11 C-15.87 15.16, -14.97 14.33, -12.43 12.49 M-12.43 12.49 C-11.87 11.32, -10.3 9.5, -8.94 7.78 M-12.43 12.49 C-11.64 11.07, -10.34 9.78, -8.94 7.78 M-8.94 7.78 C-8.57 7.63, -8.27 7.86, -7.53 7.66 M-8.94 7.78 C-8.54 7.76, -8.26 7.78, -7.53 7.66 M-7.53 7.66 C-6.81 7.56, -5.96 7.33, -5.33 7.47 M-7.53 7.66 C-6.82 7.68, -5.94 7.41, -5.33 7.47 M-5.33 7.47 C-4.45 7.12, -3.46 6.05, -2.08 5.45 M-5.33 7.47 C-4.7 6.84, -3.79 6.35, -2.08 5.45 M-2.08 5.45 C-1.4 4.7, -0.78 3.92, 0.06 2.45 M-2.08 5.45 C-1.3 4.33, -0.58 3.06, 0.06 2.45 M0.06 2.45 C-0.08 1.61, 0 0.96, 0 0 M0.06 2.45 C-0.06 2, 0.09 1.34, 0 0 M0 0 C0 0, 0 0, 0 0 M0 0 C0 0, 0 0, 0 0" stroke="#1e1e1e" stroke-width="1" fill="none"></path></g></g><mask></mask></svg>