
<svg version="1.1" xmlns="http://www.w3.org/2000/svg" viewBox="0 0 71.80962180722963 133.21622737527787" width="143.61924361445926" height="266.43245475055573">
  <!-- svg-source:excalidraw -->
  
  <defs>
    <style class="style-fonts">
      @font-face {
        font-family: "Virgil";
        src: url("https://excalidraw.com/Virgil.woff2");
      }
      @font-face {
        font-family: "Cascadia";
        src: url("https://excalidraw.com/Cascadia.woff2");
      }
      @font-face {
        font-family: "Assistant";
        src: url("https://excalidraw.com/Assistant-Regular.woff2");
      }
    </style>
    
  </defs>
  <g stroke-linecap="round"><g transform="translate(35.481795588766545 11.584655099594784) rotate(0 -11.393862260991227 47.460764382114576)" fill-rule="evenodd"><path d="M-1.25 -0.88 C-1.34 8.95, 1.53 40.66, 1.58 56.9 C1.64 73.15, 1.45 91.04, -0.92 96.59 C-3.29 102.15, -9.58 94.56, -12.65 90.22 C-15.72 85.87, -16.98 77.4, -19.34 70.51 C-21.7 63.63, -26.33 56.8, -26.81 48.91 C-27.29 41.02, -24.93 29.16, -22.21 23.16 C-19.49 17.16, -13.42 16.01, -10.51 12.9 C-7.59 9.79, -6.68 6.39, -4.72 4.5 C-2.76 2.62, 0.49 2.37, 1.23 1.61" stroke="none" stroke-width="0" fill="#69db7c" fill-rule="evenodd"></path><path d="M-0.97 -0.35 C-0.8 8.65, 0.23 38.39, 0.59 54.22 C0.96 70.06, 3.09 88.89, 1.23 94.66 C-0.63 100.43, -6.64 92.87, -10.57 88.85 C-14.5 84.82, -20.17 77.42, -22.35 70.51 C-24.53 63.61, -23.89 55.23, -23.64 47.42 C-23.4 39.62, -23.06 29.79, -20.88 23.68 C-18.71 17.57, -13.48 13.98, -10.59 10.75 C-7.7 7.52, -5.26 6.05, -3.55 4.31 C-1.84 2.56, -1 1.11, -0.33 0.28 M0.73 -1.58 C1.28 7.56, 2.79 39.25, 2.75 55.48 C2.72 71.72, 2.71 90.07, 0.51 95.84 C-1.69 101.62, -6.93 94.2, -10.45 90.12 C-13.97 86.03, -18.11 78.57, -20.61 71.34 C-23.12 64.11, -25.47 54.39, -25.48 46.75 C-25.5 39.11, -22.97 31.6, -20.7 25.52 C-18.43 19.44, -14.98 13.53, -11.84 10.29 C-8.7 7.05, -3.9 7.81, -1.88 6.09 C0.14 4.37, -0.23 1, 0.27 -0.03" stroke="#000000" stroke-width="1" fill="none"></path></g></g><mask></mask><g stroke-linecap="round"><g transform="translate(35.62120312145453 11.873029516626957) rotate(0 13.033266902860305 47.870615542581845)" fill-rule="evenodd"><path d="M-2.32 1.69 C-1.16 2.51, 3.49 4.74, 4.93 6.57 C6.37 8.41, 4.49 10.82, 6.31 12.68 C8.12 14.54, 12.89 13.88, 15.82 17.75 C18.76 21.61, 22.51 29.78, 23.92 35.85 C25.33 41.93, 24.36 47.56, 24.3 54.18 C24.23 60.79, 25.09 70.13, 23.52 75.55 C21.96 80.97, 17.38 83.4, 14.93 86.69 C12.47 89.98, 10.69 94.92, 8.78 95.28 C6.86 95.65, 4.65 96.46, 3.42 88.89 C2.18 81.32, 2.31 64.36, 1.37 49.86 C0.44 35.36, -1.9 10.14, -2.21 1.9" stroke="none" stroke-width="0" fill="#40c057" fill-rule="evenodd"></path><path d="M-1.05 -0.53 C-0.41 0.44, 1.29 3.59, 2.87 5.48 C4.45 7.37, 6.06 8.39, 8.45 10.81 C10.83 13.23, 14.4 16.05, 17.16 20.02 C19.93 23.99, 23.71 28.97, 25.05 34.64 C26.38 40.3, 25.72 47.5, 25.19 54.01 C24.66 60.52, 23.63 68.41, 21.87 73.7 C20.11 79, 17.25 82.07, 14.64 85.78 C12.04 89.5, 8.15 95.65, 6.23 96.02 C4.31 96.39, 3.78 96.08, 3.13 87.99 C2.48 79.91, 2.96 62.25, 2.34 47.51 C1.71 32.78, -0.22 7.31, -0.61 -0.43 M0.6 1.8 C1.18 2.99, 0.81 5.13, 1.96 6.88 C3.12 8.63, 5.05 10.46, 7.55 12.3 C10.05 14.13, 14.21 14.05, 16.95 17.9 C19.69 21.75, 22.45 29.02, 23.99 35.39 C25.52 41.77, 26.42 50.01, 26.14 56.15 C25.85 62.29, 23.82 67.44, 22.29 72.24 C20.76 77.04, 19.33 81.19, 16.96 84.95 C14.59 88.71, 10.18 94.41, 8.05 94.78 C5.91 95.15, 5.58 94.98, 4.16 87.17 C2.74 79.37, 0.01 62.68, -0.47 47.97 C-0.94 33.26, 1.2 6.78, 1.31 -1.08" stroke="#000000" stroke-width="1" fill="none"></path></g></g><mask></mask><g stroke-linecap="round"><g transform="translate(37.7005961676532 94.83480105428043) rotate(0 0.6147767407010178 13.852969223795071)" fill-rule="evenodd"><path d="M-1.48 -0.96 C-1.12 0.54, 0.17 8.17, 0.59 10.46 C1.01 12.76, 0.17 12.08, 1.03 12.78 C1.89 13.49, 5.54 14.03, 5.74 14.68 C5.94 15.34, 2.68 15.58, 2.24 16.7 C1.81 17.82, 3.15 19.56, 3.12 21.41 C3.1 23.27, 2.68 26.84, 2.09 27.84 C1.49 28.83, 0.28 28.16, -0.45 27.37 C-1.18 26.57, -2.06 24.7, -2.3 23.07 C-2.53 21.45, -1.53 19.16, -1.86 17.62 C-2.19 16.09, -4.06 14.31, -4.28 13.88 C-4.49 13.45, -3.86 15.7, -3.15 15.04 C-2.45 14.39, -0.65 12.38, -0.07 9.92 C0.51 7.46, 0.1 2.09, 0.34 0.28" stroke="none" stroke-width="0" fill="#868e96" fill-rule="evenodd"></path><path d="M0.04 -0.12 C0.24 1.48, 0.41 7.03, 0.71 9.33 C1 11.62, 1.05 12.9, 1.81 13.66 C2.58 14.43, 5.24 13.49, 5.28 13.93 C5.32 14.37, 2.69 15.02, 2.06 16.31 C1.42 17.59, 1.57 19.79, 1.44 21.62 C1.31 23.44, 1.63 26.44, 1.28 27.28 C0.93 28.11, -0.33 27.57, -0.64 26.6 C-0.95 25.64, -0.51 23.1, -0.59 21.48 C-0.66 19.87, -0.52 18.18, -1.09 16.91 C-1.65 15.65, -3.83 14.39, -3.97 13.9 C-4.1 13.42, -2.36 14.65, -1.9 14.01 C-1.44 13.36, -1.43 12.32, -1.2 10.05 C-0.97 7.78, -0.8 2.02, -0.52 0.38 M-0.61 -0.66 C-0.45 0.79, -0.37 6.19, 0.22 8.44 C0.81 10.68, 2.03 12.04, 2.93 12.79 C3.82 13.54, 5.59 12.35, 5.57 12.93 C5.56 13.51, 3.44 14.91, 2.84 16.27 C2.25 17.63, 2.22 19.11, 1.99 21.09 C1.75 23.06, 1.96 27.2, 1.43 28.11 C0.9 29.01, -0.74 27.47, -1.19 26.51 C-1.63 25.56, -1.07 23.75, -1.23 22.35 C-1.39 20.96, -1.71 19.49, -2.16 18.13 C-2.62 16.78, -3.9 14.93, -3.97 14.25 C-4.03 13.57, -2.99 14.79, -2.55 14.06 C-2.11 13.33, -1.85 12.13, -1.34 9.87 C-0.82 7.6, 0.46 2.13, 0.55 0.49" stroke="#000000" stroke-width="1" fill="none"></path></g></g><mask></mask></svg>