<svg version="1.1" xmlns="http://www.w3.org/2000/svg" viewBox="0 0 331.3125584683876 331.3125584683894" width="662.6251169367752" height="662.6251169367788">
  <!-- svg-source:excalidraw -->
  
  <defs>
    <style class="style-fonts">
      @font-face {
        font-family: "Virgil";
        src: url("https://excalidraw.com/Virgil.woff2");
      }
      @font-face {
        font-family: "Cascadia";
        src: url("https://excalidraw.com/Cascadia.woff2");
      }
      @font-face {
        font-family: "Assistant";
        src: url("https://excalidraw.com/Assistant-Regular.woff2");
      }
    </style>
    
  </defs>
  <g stroke-linecap="round" transform="translate(9.999999999998181 10) rotate(0 155.6562792341947 155.65627923419493)"><path d="M215.77 12.52 C231.16 15.96, 245.29 27.83, 257.44 37.78 C269.6 47.72, 280.48 58.42, 288.69 72.18 C296.9 85.94, 302.76 104.47, 306.69 120.33 C310.62 136.2, 313.09 151.81, 312.26 167.37 C311.43 182.94, 308.01 198.62, 301.7 213.73 C295.39 228.84, 285.28 245.67, 274.41 258.02 C263.53 270.36, 250.2 279.74, 236.45 287.82 C222.7 295.9, 206.96 302.49, 191.91 306.49 C176.86 310.49, 161.96 313.14, 146.16 311.83 C130.35 310.51, 112.4 305.08, 97.07 298.62 C81.75 292.16, 66.72 283, 54.19 273.08 C41.65 263.16, 29.81 252.55, 21.85 239.1 C13.9 225.65, 10.14 208.49, 6.47 192.39 C2.8 176.28, -0.85 158.09, -0.19 142.47 C0.48 126.86, 4.53 113.1, 10.47 98.7 C16.4 84.3, 25.2 68.32, 35.42 56.07 C45.64 43.83, 58.24 33.51, 71.79 25.23 C85.33 16.95, 100.78 10.69, 116.68 6.4 C132.58 2.1, 143.01 -6.51, 167.18 -0.55 C191.36 5.42, 240.21 26.68, 261.73 42.21 C283.25 57.73, 297.73 90.31, 296.31 92.61 M88.86 18.05 C101.82 8.89, 121.9 4.57, 137.7 1.69 C153.5 -1.19, 167.89 -2.34, 183.67 0.78 C199.45 3.89, 218.13 12.57, 232.39 20.38 C246.66 28.2, 259.09 36.49, 269.24 47.65 C279.39 58.81, 286.61 72.35, 293.28 87.34 C299.94 102.33, 306.9 121.53, 309.24 137.59 C311.59 153.66, 310.39 168.64, 307.35 183.73 C304.31 198.82, 298.51 214.4, 291 228.14 C283.49 241.88, 273.22 254.53, 262.31 266.18 C251.4 277.84, 239.53 290.65, 225.54 298.06 C211.56 305.48, 194.79 309.14, 178.39 310.66 C161.99 312.18, 142.9 309.83, 127.13 307.19 C111.36 304.56, 97.43 301.68, 83.75 294.84 C70.08 287.99, 56.73 278.22, 45.07 266.11 C33.41 254, 21.01 236.86, 13.8 222.17 C6.59 207.49, 3.55 194.13, 1.82 178 C0.08 161.87, 0.92 141.73, 3.39 125.4 C5.86 109.08, 9.35 93.55, 16.63 80.04 C23.92 66.54, 35.3 55.61, 47.11 44.39 C58.92 33.17, 80.65 17.29, 87.49 12.72 C94.33 8.15, 87.23 14.61, 88.15 16.98" stroke="none" stroke-width="0" fill="#000000"></path><path d="M203.14 6.66 C217.82 9.4, 232.52 21.32, 245.79 31.14 C259.06 40.95, 272.81 52.44, 282.77 65.55 C292.74 78.66, 300.7 94.48, 305.57 109.81 C310.44 125.13, 312.58 142.03, 311.99 157.51 C311.4 173, 307.1 187.85, 302.04 202.74 C296.97 217.63, 290.93 233.75, 281.59 246.86 C272.24 259.97, 259.01 272.07, 245.96 281.39 C232.9 290.7, 218.63 297.82, 203.28 302.77 C187.93 307.72, 170.19 310.78, 153.86 311.09 C137.53 311.41, 120.32 309.44, 105.3 304.66 C90.28 299.89, 76.46 292.16, 63.74 282.45 C51.02 272.74, 38.66 259.54, 28.98 246.39 C19.31 233.24, 10.75 218.59, 5.71 203.56 C0.68 188.52, -1.7 172.17, -1.21 156.19 C-0.72 140.21, 3.3 122.96, 8.66 107.66 C14.01 92.36, 21.69 77.37, 30.92 64.39 C40.14 51.41, 50.99 39.48, 64.01 29.76 C77.04 20.04, 93.43 10.93, 109.07 6.06 C124.71 1.2, 138.58 -1.05, 157.84 0.57 C177.11 2.19, 210.88 10.8, 224.66 15.76 C238.43 20.72, 241.89 28.29, 240.49 30.35 M243.67 25.38 C257.71 32.83, 270.01 49.77, 280.13 63.04 C290.26 76.31, 299.74 90.3, 304.44 104.99 C309.14 119.69, 308.69 135.24, 308.33 151.2 C307.97 167.16, 306.48 184.99, 302.27 200.74 C298.07 216.49, 291.89 232.98, 283.11 245.73 C274.33 258.47, 262.48 267.66, 249.57 277.22 C236.66 286.77, 220.93 297.31, 205.63 303.05 C190.33 308.79, 173.35 310.88, 157.75 311.64 C142.16 312.41, 127.45 312.68, 112.05 307.65 C96.66 302.62, 78.65 290.97, 65.38 281.47 C52.12 271.97, 42.19 262.38, 32.45 250.65 C22.72 238.93, 12.23 226.18, 6.96 211.12 C1.68 196.06, 1.05 176.45, 0.8 160.28 C0.54 144.11, 1.34 129.14, 5.42 114.08 C9.51 99.03, 16.62 84, 25.31 69.96 C34 55.92, 44.84 39.64, 57.57 29.83 C70.31 20.02, 86.07 16.44, 101.74 11.1 C117.42 5.75, 135.37 -1.32, 151.63 -2.24 C167.89 -3.15, 183.72 0.65, 199.3 5.63 C214.87 10.61, 238.24 24.14, 245.09 27.64 C251.95 31.14, 242.23 24.97, 240.42 26.63" stroke="#444444" stroke-width="2" fill="none"></path></g><g stroke-linecap="round"><g transform="translate(203.14679266461644 188.69077017761947) rotate(0 8.978614992086477 -27.708542519271305)" fill-rule="evenodd"><path d="M2.49 0.04 C2.71 -11.68, 1.32 -59.66, 0.87 -74.17 C0.41 -88.67, -1.77 -84.79, -0.26 -87 C1.25 -89.22, 6.57 -88.21, 9.91 -87.44 C13.26 -86.67, 18.02 -84.9, 19.82 -82.4 C21.62 -79.89, 20.63 -78.88, 20.74 -72.42 C20.85 -65.96, 20.55 -58.89, 20.5 -43.63 C20.45 -28.38, 21.19 6.35, 20.45 19.12 C19.71 31.88, 19.25 35.95, 16.05 32.95 C12.85 29.95, 3.96 6.79, 1.24 1.12" stroke="none" stroke-width="0" fill="#ffff" fill-rule="evenodd"></path><path d="M0.89 2.15 C0.08 -10.04, -2.56 -60.2, -2.9 -74.84 C-3.24 -89.49, -3.42 -84.28, -1.15 -85.73 C1.12 -87.19, 7.42 -84.21, 10.74 -83.57 C14.06 -82.93, 16.93 -83.6, 18.78 -81.9 C20.62 -80.2, 21.45 -79.61, 21.79 -73.36 C22.14 -67.11, 21.58 -59.55, 20.87 -44.42 C20.16 -29.29, 18 5.29, 17.53 17.41 C17.06 29.54, 21.09 31.21, 18.05 28.32 C15.01 25.43, 2.53 5.08, -0.73 0.07 M-2.07 0.85 C-3.53 -10.86, -5.48 -57.94, -5.77 -72.08 C-6.06 -86.22, -6.8 -81.18, -3.81 -83.99 C-0.83 -86.81, 8.84 -88.23, 12.15 -88.95 C15.45 -89.67, 15.08 -90.6, 16.02 -88.32 C16.96 -86.05, 18.02 -83.34, 17.8 -75.3 C17.59 -67.26, 13.95 -55.44, 14.74 -40.08 C15.54 -24.73, 21.34 4.65, 22.58 16.86 C23.82 29.06, 25.83 36.1, 22.18 33.13 C18.54 30.16, 4.65 4.62, 0.69 -0.96" stroke="#444444" stroke-width="2" fill="none"></path></g></g><mask></mask><g stroke-linecap="round"><g transform="translate(106.36154496273775 212.06777004595733) rotate(0 71.17958252804146 -5.678262360880808)" fill-rule="evenodd"><path d="M1.24 1.12 C1.89 -12.46, 0.32 -60.21, 0.85 -77.9 C1.38 -95.58, 2.01 -101.42, 4.42 -105 C6.82 -108.57, 10.58 -101.92, 15.28 -99.36 C19.98 -96.79, 19.23 -107.59, 32.59 -89.61 C45.95 -71.64, 78.13 -18.82, 95.43 8.51 C112.74 35.83, 128.02 61.19, 136.41 74.35 C144.79 87.5, 146.93 84.5, 145.75 87.45 C144.57 90.4, 133.24 92.42, 129.33 92.05 C125.41 91.67, 132.17 98.67, 122.27 85.19 C112.38 71.7, 86.4 35.9, 69.95 11.12 C53.51 -13.66, 32.68 -50.85, 23.6 -63.48 C14.51 -76.1, 16.55 -69.91, 15.43 -64.64 C14.3 -59.37, 16.07 -44.57, 16.86 -31.86 C17.65 -19.15, 20.56 2.96, 20.19 11.6 C19.82 20.25, 17.89 17.86, 14.65 20 C11.42 22.13, 3.77 27.07, 0.79 24.4 C-2.2 21.73, -3.31 8.11, -3.27 3.98" stroke="none" stroke-width="0" fill="#ffff" fill-rule="evenodd"></path><path d="M-1.17 -1.6 C-1.4 -15.19, -1.24 -62.72, -0.48 -79.38 C0.29 -96.04, -0.05 -98.18, 3.43 -101.55 C6.9 -104.92, 15.41 -102.41, 20.39 -99.57 C25.36 -96.74, 20.6 -102.6, 33.28 -84.56 C45.97 -66.52, 80.03 -17.22, 96.5 8.66 C112.97 34.55, 124.62 58.3, 132.09 70.75 C139.56 83.2, 141.21 79.93, 141.33 83.39 C141.45 86.84, 135.56 91.87, 132.82 91.48 C130.09 91.08, 135.12 95.44, 124.9 81.02 C114.69 66.59, 87.78 28.66, 71.52 4.93 C55.26 -18.8, 35.76 -49.44, 27.36 -61.36 C18.96 -73.28, 22.24 -71.01, 21.1 -66.59 C19.95 -62.18, 20.52 -47.02, 20.49 -34.88 C20.46 -22.75, 20.95 -3.82, 20.9 6.24 C20.86 16.3, 23.37 22.15, 20.22 25.47 C17.06 28.8, 5.18 30.59, 1.97 26.21 C-1.25 21.82, 1.18 3.3, 0.94 -0.83 M3.39 3.71 C4 -9.82, 5.22 -58.77, 5.07 -77.12 C4.91 -95.48, -0.32 -101.89, 2.45 -106.42 C5.22 -110.95, 16.9 -108.19, 21.68 -104.31 C26.46 -100.43, 19.38 -102.8, 31.13 -83.13 C42.88 -63.45, 75.3 -11.44, 92.19 13.72 C109.07 38.87, 124.74 56.44, 132.44 67.82 C140.13 79.2, 137.57 78.61, 138.35 82.01 C139.13 85.42, 139.2 88.75, 137.12 88.25 C135.04 87.75, 136.72 92.72, 125.88 79 C115.05 65.28, 88.94 29.5, 72.11 5.94 C55.28 -17.62, 33.15 -49.88, 24.89 -62.35 C16.63 -74.81, 23.59 -73.14, 22.54 -68.86 C21.49 -64.58, 18.69 -48.8, 18.59 -36.66 C18.48 -24.51, 22.55 -5.51, 21.92 4 C21.3 13.52, 18.58 16.34, 14.84 20.45 C11.1 24.55, 2.22 32.11, -0.52 28.63 C-3.26 25.15, -1.25 3.9, -1.59 -0.42" stroke="#444444" stroke-width="2" fill="none"></path></g></g><mask></mask></svg>