
<svg version="1.1" xmlns="http://www.w3.org/2000/svg" viewBox="0 0 101.8213685147548 112.02924953885213" width="203.6427370295096" height="224.05849907770425">
  <!-- svg-source:excalidraw -->
  
  <defs>
    <style class="style-fonts">
      @font-face {
        font-family: "Virgil";
        src: url("https://excalidraw.com/Virgil.woff2");
      }
      @font-face {
        font-family: "Cascadia";
        src: url("https://excalidraw.com/Cascadia.woff2");
      }
      @font-face {
        font-family: "Assistant";
        src: url("https://excalidraw.com/Assistant-Regular.woff2");
      }
    </style>
    
  </defs>
  <g stroke-linecap="round"><g transform="translate(38.26705337912608 96.15504212147789) rotate(0 12.531642490397644 -40.14041735205183)"><path d="M0 0 C4.1 3.06, 7.02 3.63, 11.36 5.87 M0 0 C3.4 1.98, 6.93 3.14, 11.36 5.87 M11.36 5.87 C20.57 1.11, 30.75 -4.72, 53.26 -16.45 M11.36 5.87 C20.66 -0.23, 32.2 -5.06, 53.26 -16.45 M53.26 -16.45 C54.63 -28.82, 50.68 -46.66, 52.48 -62.66 M53.26 -16.45 C52.6 -33.69, 52.14 -50.76, 52.48 -62.66 M52.48 -62.66 C41.03 -66.99, 34.86 -71.82, 12.92 -86.16 M52.48 -62.66 C41.95 -69.88, 28.89 -76.67, 12.92 -86.16 M12.92 -86.16 C1.41 -77.38, -14.71 -71.37, -27.41 -63.83 M12.92 -86.16 C-2.67 -77.69, -18.59 -68.04, -27.41 -63.83 M-27.41 -63.83 C-29.27 -50.39, -27.4 -42.12, -28.2 -16.84 M-27.41 -63.83 C-27.75 -51.55, -27.93 -41.59, -28.2 -16.84 M-28.2 -16.84 C-25.42 -13.6, -21.2 -13.21, -17.66 -10.94 M-28.2 -16.84 C-24.3 -14.01, -20.12 -12.65, -17.66 -10.94 M-17.66 -10.94 C-15.93 -9.7, -13.58 -9.09, -11.58 -8.4 M-17.66 -10.94 C-15.47 -10.01, -13.49 -9.04, -11.58 -8.4 M-11.58 -8.4 C-10.61 -8.08, -8.83 -8.99, -5.55 -8.63 M-11.58 -8.4 C-10.29 -8.6, -9.01 -8.76, -5.55 -8.63 M-5.55 -8.63 C-4.04 -9.72, -3.43 -12, -1.82 -13.62 M-5.55 -8.63 C-4.43 -10.52, -3.37 -12.08, -1.82 -13.62 M-1.82 -13.62 C-0.95 -24.31, -2.61 -36, -1.82 -55 M-1.82 -13.62 C-2.73 -27.21, -2.27 -40.26, -1.82 -55" stroke="#2f9e44" stroke-width="4" fill="none"></path></g></g><mask></mask><g stroke-linecap="round"><g transform="translate(74.29552553901704 48.874674631519156) rotate(0 -14.48971162952148 9.00711803997251)"><path d="M1.02 -0.68 C0.01 -1.72, -2 -5.02, -5.81 -6.05 C-9.62 -7.07, -18.25 -7.38, -21.84 -6.84 C-25.43 -6.31, -26.67 -4.71, -27.36 -2.83 C-28.05 -0.94, -29.44 2.29, -25.96 4.46 C-22.49 6.64, -10.92 8.19, -6.51 10.22 C-2.09 12.26, 0.02 14.43, 0.51 16.67 C1 18.9, -1.15 22.3, -3.57 23.64 C-5.98 24.98, -10.35 24.66, -13.98 24.73 C-17.6 24.8, -22.52 25.54, -25.33 24.08 C-28.15 22.61, -30.25 17.2, -30.88 15.95 M0.1 1.57 C-1.12 0.13, -3.09 -6.31, -6.94 -8.05 C-10.78 -9.79, -19.58 -9.95, -22.97 -8.87 C-26.36 -7.79, -27.11 -3.76, -27.29 -1.56 C-27.47 0.64, -27.65 2.45, -24.04 4.32 C-20.43 6.18, -9.8 7.76, -5.63 9.61 C-1.46 11.47, 0.83 13.08, 1 15.44 C1.17 17.8, -2.39 21.92, -4.62 23.79 C-6.84 25.65, -8.92 26.57, -12.34 26.63 C-15.75 26.68, -21.99 25.8, -25.12 24.14 C-28.25 22.48, -30.31 17.99, -31.14 16.67" stroke="#2f9e44" stroke-width="4" fill="none"></path></g></g><mask></mask></svg>