<svg version="1.1" xmlns="http://www.w3.org/2000/svg" viewBox="0 0 125.3770726141629 109.49797891599064" width="250.7541452283258" height="218.9959578319813">
  <!-- svg-source:excalidraw -->
  
  <defs>
    <style class="style-fonts">
      @font-face {
        font-family: "Virgil";
        src: url("https://excalidraw.com/Virgil.woff2");
      }
      @font-face {
        font-family: "Cascadia";
        src: url("https://excalidraw.com/Cascadia.woff2");
      }
      @font-face {
        font-family: "Assistant";
        src: url("https://excalidraw.com/Assistant-Regular.woff2");
      }
    </style>
    
  </defs>
  <g stroke-linecap="round" transform="translate(42.878993309386715 1.752270354484608) rotate(322.56173559661136 20.18820810208581 52.69021949379771)"><path d="M16.11 1.16 C19.3 -1.68, 23.69 -0.91, 26.97 2.11 C30.25 5.13, 33.63 11.67, 35.78 19.29 C37.92 26.9, 39.49 38.24, 39.84 47.8 C40.2 57.37, 39.46 68.38, 37.91 76.68 C36.35 84.98, 33.53 92.74, 30.53 97.62 C27.53 102.5, 23.48 106.43, 19.9 105.97 C16.32 105.51, 12.25 100.53, 9.04 94.85 C5.84 89.16, 2.16 80.65, 0.68 71.87 C-0.8 63.09, -0.51 51.47, 0.17 42.16 C0.86 32.85, 1.93 22.88, 4.81 16.02 C7.69 9.16, 15.18 3.33, 17.45 0.99 C19.72 -1.34, 18.58 1.28, 18.45 2 M15.31 1.87 C18.43 -0.51, 22.67 1.48, 26.46 5.02 C30.26 8.55, 35.99 15.25, 38.07 23.09 C40.14 30.93, 39.21 42.82, 38.9 52.08 C38.59 61.33, 37.85 70.49, 36.21 78.63 C34.57 86.78, 32.25 96.62, 29.04 100.95 C25.83 105.28, 20.43 105.66, 16.97 104.63 C13.52 103.6, 10.98 100.63, 8.3 94.75 C5.61 88.87, 1.9 78.6, 0.85 69.38 C-0.21 60.16, 0.97 48.63, 1.98 39.45 C2.99 30.27, 4.46 20.59, 6.9 14.3 C9.34 8, 15.22 3.54, 16.61 1.67 C18.01 -0.21, 15.29 2.28, 15.29 3.05" stroke="#4dabf7" stroke-width="4" fill="none"></path></g><g stroke-linecap="round" transform="translate(42.610248955596035 2.0587699641973813) rotate(34.85855908660543 20.18820810208581 52.69021949379771)"><path d="M12.5 3.34 C15.42 -0.94, 19.87 -1.87, 23.35 -0.09 C26.83 1.68, 30.72 7.43, 33.41 13.97 C36.1 20.5, 38.46 30.08, 39.5 39.13 C40.54 48.18, 40.62 59.11, 39.65 68.28 C38.67 77.46, 36.42 88.15, 33.65 94.16 C30.89 100.16, 26.91 103.4, 23.06 104.31 C19.2 105.22, 13.9 103.76, 10.51 99.6 C7.12 95.44, 4.58 87.48, 2.7 79.36 C0.82 71.24, -0.95 60.21, -0.77 50.87 C-0.6 41.54, 1.21 31.39, 3.76 23.34 C6.31 15.28, 12.29 6.3, 14.53 2.55 C16.76 -1.2, 17.06 0.15, 17.18 0.85 M27.33 6.01 C31.01 9.09, 36.66 17.06, 38.59 25.15 C40.52 33.24, 39.4 45.28, 38.92 54.55 C38.44 63.81, 37.5 72.82, 35.71 80.73 C33.92 88.64, 31.46 98.08, 28.18 102.01 C24.9 105.94, 19.47 105.79, 16.04 104.31 C12.6 102.84, 10.15 99.37, 7.57 93.16 C4.99 86.94, 1.46 76.37, 0.57 67.02 C-0.32 57.67, 1.06 46.13, 2.23 37.07 C3.41 28.01, 5.05 18.62, 7.61 12.65 C10.16 6.69, 14.25 2.37, 17.55 1.28 C20.85 0.2, 25.61 5.33, 27.4 6.14 C29.19 6.95, 28.31 5.59, 28.3 6.16" stroke="#4dabf7" stroke-width="4" fill="none"></path></g><g stroke-linecap="round" transform="translate(42.50032820499473 2.0546220113456) rotate(89.50418904602306 20.18820810208581 52.69021949379771)"><path d="M16.75 -0.23 C20.02 -2.22, 24.54 0.6, 27.88 4.54 C31.22 8.48, 34.68 15.62, 36.81 23.4 C38.93 31.19, 40.44 41.61, 40.64 51.25 C40.84 60.89, 39.89 73.17, 38.01 81.23 C36.14 89.28, 32.94 95.69, 29.41 99.58 C25.87 103.48, 20.57 105.77, 16.83 104.59 C13.09 103.4, 9.77 98.58, 6.98 92.47 C4.2 86.37, 1.11 76.87, 0.11 67.95 C-0.89 59.03, -0.04 47.91, 0.97 38.95 C1.98 29.99, 3.26 20.76, 6.18 14.19 C9.1 7.62, 15.98 1.71, 18.5 -0.46 C21.01 -2.64, 20.96 0.34, 21.26 1.17 M28.26 3.55 C31.6 5.93, 32.92 14.52, 34.7 21.8 C36.48 29.08, 38.42 37.8, 38.95 47.23 C39.47 56.66, 39.49 69.92, 37.85 78.39 C36.2 86.87, 32.06 93.43, 29.06 98.08 C26.05 102.73, 23.3 106.74, 19.82 106.29 C16.33 105.83, 10.99 101.12, 8.15 95.34 C5.3 89.56, 3.95 80.41, 2.74 71.59 C1.53 62.77, 0.39 51.54, 0.88 42.42 C1.38 33.29, 3.51 23.48, 5.73 16.84 C7.96 10.19, 10.75 4.81, 14.24 2.55 C17.73 0.29, 24.66 3.05, 26.67 3.27 C28.67 3.48, 26.53 2.81, 26.27 3.83" stroke="#4dabf7" stroke-width="4" fill="none"></path></g><g stroke-linecap="round" transform="translate(56.90836400657645 47.97330847279318) rotate(0 7.109591189859202 6.263408807869155)"><path d="M6.94 0.23 C8.39 0.12, 10.06 0.42, 11.25 1.23 C12.44 2.03, 13.72 3.8, 14.06 5.05 C14.4 6.31, 13.92 7.66, 13.28 8.76 C12.64 9.86, 11.51 11.07, 10.22 11.64 C8.93 12.21, 7 12.51, 5.54 12.18 C4.07 11.85, 2.41 10.8, 1.42 9.66 C0.43 8.51, -0.56 6.63, -0.4 5.31 C-0.24 3.99, 1.2 2.62, 2.41 1.73 C3.62 0.84, 6.01 0.3, 6.84 -0.01 C7.68 -0.32, 7.48 -0.18, 7.42 -0.15 M8.97 0.2 C10.53 0.5, 11.97 1.63, 12.75 2.78 C13.53 3.94, 13.6 5.98, 13.67 7.14 C13.73 8.3, 14.17 8.77, 13.14 9.73 C12.12 10.69, 9.26 12.48, 7.52 12.92 C5.79 13.35, 4.02 13.18, 2.72 12.33 C1.43 11.48, 0.27 9.32, -0.22 7.81 C-0.71 6.29, -0.8 4.32, -0.22 3.23 C0.36 2.14, 1.78 1.9, 3.26 1.26 C4.74 0.63, 7.72 -0.5, 8.67 -0.58 C9.62 -0.67, 8.88 0.55, 8.96 0.75" stroke="none" stroke-width="0" fill="#a5d8ff"></path><path d="M5.47 0.16 C6.87 -0.12, 8.99 0.08, 10.39 0.66 C11.79 1.23, 13.22 2.28, 13.86 3.6 C14.49 4.92, 14.66 7.3, 14.2 8.57 C13.74 9.85, 12.54 10.62, 11.12 11.24 C9.7 11.85, 7.25 12.46, 5.68 12.28 C4.11 12.1, 2.7 11.16, 1.69 10.16 C0.68 9.17, -0.38 7.56, -0.39 6.29 C-0.39 5.03, 0.65 3.54, 1.66 2.58 C2.67 1.61, 4.97 0.95, 5.66 0.51 C6.36 0.07, 5.78 -0.11, 5.82 -0.08 M7.94 0.67 C9.59 0.82, 12.49 1.62, 13.41 2.71 C14.33 3.8, 13.77 5.99, 13.48 7.21 C13.19 8.44, 12.6 9.08, 11.67 10.06 C10.74 11.03, 9.41 12.85, 7.93 13.06 C6.44 13.27, 3.95 12.05, 2.74 11.32 C1.54 10.58, 1.09 9.88, 0.7 8.63 C0.32 7.39, -0.19 5.2, 0.45 3.85 C1.08 2.51, 3.1 1.17, 4.51 0.56 C5.92 -0.04, 8.21 0.19, 8.9 0.21 C9.59 0.23, 8.82 0.49, 8.64 0.68" stroke="#4dabf7" stroke-width="4" fill="none"></path></g></svg>