
<svg version="1.1" xmlns="http://www.w3.org/2000/svg" viewBox="0 0 343.32287245789485 223.01831764992266" width="686.6457449157897" height="446.03663529984533">
  <!-- svg-source:excalidraw -->
  
  <defs>
    <style class="style-fonts">
      @font-face {
        font-family: "Virgil";
        src: url("https://excalidraw.com/Virgil.woff2");
      }
      @font-face {
        font-family: "Cascadia";
        src: url("https://excalidraw.com/Cascadia.woff2");
      }
      @font-face {
        font-family: "Assistant";
        src: url("https://excalidraw.com/Assistant-Regular.woff2");
      }
    </style>
    
  </defs>
  <g stroke-linecap="round"><g stroke-opacity="0.7" fill-opacity="0.7" transform="translate(52.34178697147763 79.50038309304318) rotate(7.664517330320252 136.0278108531429 -8.890701799230555)" fill-rule="evenodd"><path d="M0.33 1.09 C3.08 -4.34, 11.6 -24.41, 15.44 -31.97 C19.27 -39.54, 19.31 -41.11, 23.35 -44.3 C27.38 -47.5, 34.95 -48.96, 39.66 -51.13 C44.37 -53.3, 46.35 -56.68, 51.62 -57.35 C56.9 -58.02, 66.57 -55.49, 71.32 -55.14 C76.07 -54.79, 76.29 -56.1, 80.11 -55.24 C83.94 -54.37, 89.43 -51.39, 94.28 -49.95 C99.13 -48.51, 102.94 -49, 109.2 -46.58 C115.47 -44.16, 125.12 -38.53, 131.87 -35.42 C138.61 -32.3, 141.84 -31.21, 149.68 -27.89 C157.51 -24.57, 168.41 -18.19, 178.87 -15.51 C189.33 -12.82, 201.71 -9.65, 212.45 -11.78 C223.19 -13.92, 234.43 -22.88, 243.33 -28.31 C252.22 -33.75, 260.8 -39.82, 265.81 -44.38 C270.82 -48.94, 274.52 -58.9, 273.4 -55.68 C272.29 -52.46, 265.24 -33.96, 259.11 -25.06 C252.98 -16.16, 243.03 -8.36, 236.63 -2.26 C230.24 3.84, 229.23 6.21, 220.75 11.56 C212.26 16.91, 197.88 25.34, 185.71 29.86 C173.54 34.39, 161.49 39.92, 147.72 38.71 C133.95 37.5, 114.86 29.2, 103.1 22.6 C91.33 16, 83.49 4, 77.12 -0.9 C70.75 -5.8, 69.64 -3.59, 64.88 -6.82 C60.12 -10.05, 55.92 -17.51, 48.55 -20.26 C41.18 -23.01, 27.69 -25.12, 20.68 -23.34 C13.67 -21.55, 10.03 -13.58, 6.5 -9.53 C2.96 -5.47, 1.03 0, -0.53 1" stroke="none" stroke-width="0" fill="#06b6d4" fill-rule="evenodd"></path><path d="M2.36 -2.33 C5.92 -8.12, 15.7 -26.24, 19.45 -32.45 C23.2 -38.67, 22.24 -36.98, 24.87 -39.64 C27.5 -42.29, 31.51 -46.38, 35.22 -48.39 C38.93 -50.39, 41.08 -50.22, 47.13 -51.65 C53.17 -53.09, 66.01 -56.2, 71.47 -57 C76.93 -57.8, 76.17 -57.21, 79.89 -56.44 C83.62 -55.67, 88.68 -54.05, 93.83 -52.37 C98.98 -50.69, 103.86 -49.54, 110.79 -46.36 C117.72 -43.18, 128.11 -36.68, 135.4 -33.29 C142.68 -29.9, 147.2 -29.07, 154.49 -26.02 C161.79 -22.96, 169.25 -17.08, 179.17 -14.97 C189.09 -12.86, 202.72 -11.54, 214.01 -13.34 C225.3 -15.14, 238.19 -20.19, 246.92 -25.75 C255.65 -31.3, 262.08 -42.63, 266.38 -46.68 C270.68 -50.73, 274.02 -53.89, 272.73 -50.05 C271.43 -46.2, 264.27 -30.98, 258.6 -23.61 C252.92 -16.25, 245.39 -12.49, 238.68 -5.86 C231.97 0.78, 227.93 10.1, 218.33 16.2 C208.73 22.31, 193.3 27.23, 181.1 30.77 C168.89 34.31, 157.51 38.37, 145.09 37.44 C132.66 36.51, 117.8 31.57, 106.56 25.2 C95.32 18.83, 84.25 5.17, 77.63 -0.77 C71.02 -6.71, 71.7 -7.5, 66.86 -10.45 C62.02 -13.4, 56.04 -16.81, 48.61 -18.45 C41.17 -20.1, 29.26 -21.57, 22.25 -20.32 C15.25 -19.06, 10.58 -13.93, 6.57 -10.92 C2.56 -7.91, -0.51 -4.3, -1.81 -2.24 M0.19 2.58 C3.74 -2.89, 14.46 -20.86, 18.27 -28.6 C22.07 -36.34, 20.14 -39.67, 23.04 -43.87 C25.93 -48.06, 30.96 -51.44, 35.63 -53.78 C40.31 -56.11, 45.79 -56.84, 51.1 -57.87 C56.42 -58.9, 62.59 -60.99, 67.53 -59.97 C72.47 -58.96, 76.76 -52.75, 80.74 -51.78 C84.71 -50.8, 86.85 -55.71, 91.39 -54.11 C95.93 -52.51, 101.61 -45.37, 107.97 -42.16 C114.32 -38.96, 121.58 -37.74, 129.52 -34.87 C137.46 -32, 147.77 -28.11, 155.63 -24.94 C163.48 -21.78, 166.76 -18.77, 176.66 -15.9 C186.55 -13.04, 203.39 -6.18, 214.99 -7.74 C226.6 -9.3, 237.39 -18.42, 246.29 -25.26 C255.2 -32.1, 263.52 -43.94, 268.39 -48.77 C273.27 -53.6, 277.53 -57.48, 275.53 -54.23 C273.53 -50.98, 261.69 -37.28, 256.39 -29.26 C251.09 -21.24, 249.25 -13.85, 243.73 -6.12 C238.22 1.61, 233.69 10.47, 223.32 17.12 C212.95 23.77, 195.05 30.92, 181.52 33.77 C167.99 36.62, 154.55 36.02, 142.12 34.2 C129.68 32.38, 117.86 27.72, 106.93 22.82 C96 17.93, 83.87 9.44, 76.55 4.82 C69.22 0.2, 68.38 -1.17, 62.96 -4.9 C57.55 -8.63, 50.58 -14.84, 44.06 -17.55 C37.53 -20.26, 29.62 -23.33, 23.82 -21.17 C18.02 -19.01, 13.16 -8.32, 9.27 -4.57 C5.38 -0.82, 2.33 1.04, 0.5 1.35" stroke="#06b6d4" stroke-width="2" fill="none"></path></g></g><mask></mask><g stroke-linecap="round"><g stroke-opacity="0.7" fill-opacity="0.7" transform="translate(11.590445539037319 169.66654081428442) rotate(6.502462146453518 132.6971026840538 -9.09347527425166)" fill-rule="evenodd"><path d="M-2.06 0.89 C0.46 -5.27, 10.41 -28.32, 15.49 -35.89 C20.58 -43.47, 24.86 -41.59, 28.44 -44.55 C32.02 -47.5, 33.29 -51.93, 36.96 -53.63 C40.64 -55.33, 45.62 -54.11, 50.49 -54.77 C55.37 -55.43, 61.38 -57.47, 66.23 -57.59 C71.07 -57.72, 75.26 -56.08, 79.57 -55.51 C83.87 -54.95, 87.94 -55.41, 92.05 -54.2 C96.17 -52.99, 98.58 -51.11, 104.28 -48.28 C109.98 -45.45, 118.42 -41.18, 126.25 -37.25 C134.08 -33.31, 143.52 -28.23, 151.24 -24.67 C158.96 -21.11, 163.39 -17.94, 172.57 -15.9 C181.74 -13.85, 194.93 -10.52, 206.29 -12.41 C217.65 -14.29, 231.94 -21.1, 240.72 -27.22 C249.5 -33.35, 254.55 -44.84, 258.98 -49.17 C263.41 -53.5, 269.16 -57.25, 267.3 -53.21 C265.44 -49.17, 253.12 -32.49, 247.83 -24.94 C242.54 -17.39, 240.71 -14.15, 235.56 -7.92 C230.41 -1.7, 226.22 5.35, 216.94 12.44 C207.65 19.53, 192.96 30.36, 179.85 34.62 C166.73 38.88, 151.2 40.07, 138.24 38.02 C125.28 35.96, 112.24 28.13, 102.07 22.27 C91.91 16.42, 83.61 8.32, 77.25 2.9 C70.89 -2.51, 69.57 -5.86, 63.92 -10.22 C58.27 -14.57, 50.29 -21.47, 43.36 -23.23 C36.43 -24.98, 28.36 -23.32, 22.34 -20.75 C16.32 -18.18, 11.43 -10.68, 7.23 -7.81 C3.03 -4.94, -1.26 -4.64, -2.86 -3.52" stroke="none" stroke-width="0" fill="#06b6d4" fill-rule="evenodd"></path><path d="M1.95 0.41 C4.39 -4.4, 13.34 -24.19, 17.02 -31.22 C20.7 -38.26, 21.43 -39.02, 24 -41.8 C26.58 -44.59, 28.03 -45.46, 32.47 -47.93 C36.91 -50.4, 45.05 -54.81, 50.64 -56.62 C56.23 -58.43, 61.26 -58.57, 66.01 -58.79 C70.76 -59.01, 74.51 -58.74, 79.12 -57.93 C83.72 -57.13, 88.86 -55.94, 93.64 -53.98 C98.43 -52.01, 101.57 -49.25, 107.81 -46.15 C114.05 -43.05, 123.78 -39.04, 131.07 -35.38 C138.36 -31.71, 144.37 -27.12, 151.54 -24.13 C158.72 -21.14, 164.4 -19.84, 174.12 -17.45 C183.85 -15.07, 198.69 -7.83, 209.88 -9.84 C221.07 -11.85, 233.22 -23.91, 241.29 -29.53 C249.36 -35.14, 254.06 -39.83, 258.31 -43.53 C262.55 -47.24, 268.19 -54.26, 266.78 -51.76 C265.38 -49.26, 255.49 -36.62, 249.89 -28.54 C244.28 -20.46, 239.4 -10.26, 233.14 -3.28 C226.88 3.7, 221.65 7.23, 212.33 13.34 C203 19.45, 188.98 28.81, 177.21 33.35 C165.44 37.9, 154.14 42.45, 141.7 40.62 C129.26 38.8, 113 29.3, 102.59 22.4 C92.17 15.51, 85.66 4.41, 79.23 -0.73 C72.79 -5.86, 69.69 -5.17, 63.98 -8.41 C58.26 -11.66, 51.86 -17.92, 44.94 -20.21 C38.01 -22.5, 28.91 -23.66, 22.42 -22.14 C15.92 -20.61, 9.89 -14.99, 5.95 -11.06 C2 -7.13, -0.16 -0.46, -1.26 1.45 M-0.44 -1.83 C1.41 -7.17, 11.01 -27.46, 14.75 -34.94 C18.5 -42.41, 19.18 -43.77, 22.03 -46.69 C24.88 -49.61, 27.44 -50.88, 31.86 -52.47 C36.28 -54.05, 42.4 -56.06, 48.54 -56.22 C54.67 -56.38, 63.32 -53.88, 68.67 -53.41 C74.01 -52.94, 76.67 -52.98, 80.61 -53.41 C84.56 -53.83, 88.31 -57.98, 92.35 -55.96 C96.38 -53.94, 98 -45.78, 104.81 -41.29 C111.63 -36.81, 125.21 -32.31, 133.26 -29.06 C141.31 -25.8, 146.79 -23.32, 153.12 -21.74 C159.45 -20.16, 161.51 -21.37, 171.23 -19.55 C180.96 -17.74, 199.85 -8.98, 211.46 -10.85 C223.06 -12.71, 232.87 -25.33, 240.86 -30.75 C248.86 -36.17, 256.03 -39.11, 259.45 -43.35 C262.86 -47.6, 262.08 -58.8, 261.34 -56.22 C260.6 -53.65, 260.28 -36.92, 255.01 -27.9 C249.74 -18.89, 236.07 -8.84, 229.73 -2.1 C223.39 4.63, 225.6 5.93, 216.97 12.51 C208.34 19.09, 190.97 32.99, 177.95 37.35 C164.93 41.7, 151.45 40.39, 138.83 38.64 C126.21 36.89, 112.02 32.48, 102.22 26.85 C92.43 21.22, 87.21 11.06, 80.07 4.88 C72.93 -1.31, 64.78 -6.14, 59.39 -10.29 C53.99 -14.44, 53.51 -17.78, 47.68 -20.02 C41.85 -22.27, 30.94 -26.3, 24.39 -23.74 C17.85 -21.18, 12.25 -8.37, 8.41 -4.68 C4.57 -0.99, 2.89 -3.09, 1.35 -1.59" stroke="#06b6d4" stroke-width="2" fill="none"></path></g></g><mask></mask></svg>