<svg version="1.1" xmlns="http://www.w3.org/2000/svg" viewBox="0 0 293.2810385269786 265.99557463323845" width="586.5620770539572" height="531.9911492664769">
  <!-- svg-source:excalidraw -->
  
  <defs>
    <style class="style-fonts">
      @font-face {
        font-family: "Virgil";
        src: url("https://excalidraw.com/Virgil.woff2");
      }
      @font-face {
        font-family: "Cascadia";
        src: url("https://excalidraw.com/Cascadia.woff2");
      }
      @font-face {
        font-family: "Assistant";
        src: url("https://excalidraw.com/Assistant-Regular.woff2");
      }
    </style>
    
  </defs>
  <g stroke-linecap="round" transform="translate(130.3163779375045 8.69516800005249) rotate(26.003345844510225 42.32614515021669 84.64037886818892)"><path d="M17.63 14.37 C22.2 6.88, 29.81 2.72, 36.29 0.73 C42.78 -1.25, 50.9 -1.13, 56.55 2.44 C62.2 6.01, 66.32 13.28, 70.22 22.16 C74.12 31.03, 77.41 43.86, 79.95 55.72 C82.49 67.57, 85.86 81.08, 85.47 93.29 C85.08 105.5, 81.19 118.75, 77.64 128.96 C74.08 139.16, 69.26 147.8, 64.15 154.55 C59.05 161.29, 52.43 167.52, 46.99 169.43 C41.55 171.33, 36.77 169.79, 31.49 165.95 C26.21 162.11, 20.34 154.86, 15.31 146.39 C10.28 137.92, 4.1 126.47, 1.31 115.14 C-1.49 103.81, -2.48 90.38, -1.46 78.41 C-0.43 66.44, -0.88 56.45, 7.45 43.34 C15.79 30.22, 37.09 0.91, 48.58 -0.25 C60.07 -1.42, 76.49 34.79, 76.4 36.35 M11.82 21.69 C16.17 12.92, 25.82 7.55, 31.48 4.4 C37.15 1.25, 39.75 1.23, 45.8 2.8 C51.85 4.37, 62.19 6.81, 67.78 13.84 C73.38 20.87, 76.23 33.75, 79.37 44.97 C82.52 56.18, 86.73 68.91, 86.67 81.13 C86.61 93.36, 81.5 106.94, 79.01 118.29 C76.52 129.64, 76.12 141.03, 71.73 149.25 C67.33 157.46, 58.56 163.91, 52.64 167.57 C46.71 171.24, 41.4 173.53, 36.17 171.25 C30.95 168.96, 26.76 161.54, 21.29 153.85 C15.81 146.16, 7.22 135.95, 3.31 125.11 C-0.6 114.26, -2.41 100.29, -2.19 88.78 C-1.97 77.27, 1.88 67.1, 4.63 56.05 C7.38 45.01, 12.25 27.64, 14.28 22.51 C16.32 17.38, 17 24.11, 16.85 25.29" stroke="none" stroke-width="0" fill="#ff1e4d"></path><path d="M58.85 6.3 C64.23 9.56, 71.58 19.02, 75.56 28.96 C79.55 38.9, 81.68 53.78, 82.77 65.94 C83.87 78.1, 83.01 90.43, 82.13 101.91 C81.25 113.4, 81.08 124.85, 77.48 134.85 C73.87 144.84, 66.07 156.18, 60.48 161.87 C54.9 167.56, 50.22 169.23, 43.96 168.98 C37.7 168.74, 28.33 165.35, 22.92 160.39 C17.51 155.43, 15.34 148.68, 11.49 139.22 C7.64 129.75, 1.88 115.78, -0.2 103.61 C-2.27 91.44, -2.11 77.94, -0.95 66.2 C0.21 54.46, 2.53 42.35, 6.76 33.17 C10.98 24, 18.3 16.97, 24.39 11.15 C30.49 5.33, 37.22 -1.46, 43.31 -1.75 C49.4 -2.04, 57.89 6.88, 60.95 9.42 C64.01 11.96, 61.66 12.29, 61.66 13.49 M12.55 21.66 C16.91 13.05, 29.04 6.43, 35.01 3.41 C40.98 0.39, 42.37 1.38, 48.37 3.53 C54.38 5.68, 65.59 9.57, 71.02 16.32 C76.44 23.07, 78.94 33.1, 80.94 44.02 C82.94 54.94, 83.17 68.91, 83.02 81.84 C82.87 94.76, 82.64 110.3, 80.05 121.57 C77.46 132.83, 72.18 141.7, 67.46 149.43 C62.74 157.17, 57.55 164.61, 51.73 167.98 C45.9 171.36, 38.7 172.35, 32.49 169.69 C26.28 167.04, 18.68 160.33, 14.46 152.06 C10.25 143.79, 9.45 130.75, 7.23 120.07 C5.01 109.4, 1.78 99.57, 1.15 88.01 C0.53 76.46, 1.22 61.96, 3.48 50.75 C5.74 39.54, 12.12 25.35, 14.71 20.77 C17.29 16.18, 18.82 22.61, 18.99 23.25" stroke="transparent" stroke-width="4" fill="none"></path></g><g stroke-linecap="round" transform="translate(150.90129064882967 52.50408479596899) rotate(85.50284838533213 42.32614515021669 84.64037886818892)"><path d="M30.33 3.37 C36.15 -1.39, 44.74 -2.21, 50.6 -0.36 C56.46 1.49, 61.01 6.96, 65.47 14.47 C69.92 21.97, 74 33.57, 77.34 44.67 C80.68 55.77, 85.02 68.85, 85.51 81.07 C86.01 93.29, 83.09 106.99, 80.33 117.98 C77.57 128.97, 73.52 138.86, 68.96 146.99 C64.4 155.13, 58.21 163.16, 52.96 166.79 C47.71 170.42, 42.92 170.88, 37.44 168.76 C31.95 166.64, 25.65 161.17, 20.06 154.08 C14.47 146.98, 7.52 136.76, 3.92 126.19 C0.33 115.62, -1.64 102.61, -1.5 90.63 C-1.36 78.65, 2.41 66, 4.76 54.31 C7.12 42.61, 6.96 29.44, 12.61 20.45 C18.26 11.47, 33.21 3.56, 38.67 0.41 C44.13 -2.75, 45.63 0.27, 45.39 1.5 M45.11 0.62 C50.76 0.13, 53.45 5.86, 58.9 11.22 C64.34 16.58, 73.53 22.88, 77.76 32.79 C81.98 42.7, 82.96 58.07, 84.25 70.7 C85.54 83.32, 87.52 96.67, 85.48 108.54 C83.44 120.42, 76.19 132.63, 71.99 141.95 C67.79 151.27, 65.76 159.58, 60.27 164.48 C54.77 169.38, 45.21 171.62, 39.01 171.35 C32.81 171.08, 27.69 168.9, 23.07 162.83 C18.46 156.75, 15.42 145.48, 11.31 134.9 C7.21 124.33, 0.49 111.63, -1.56 99.38 C-3.62 87.13, -3.21 72.54, -1 61.38 C1.2 50.21, 7.19 41.41, 11.65 32.39 C16.11 23.38, 19.98 12.45, 25.74 7.28 C31.5 2.12, 43.75 2.2, 46.2 1.39 C48.64 0.58, 40.43 1.04, 40.41 2.43" stroke="none" stroke-width="0" fill="#ff1e4d"></path><path d="M61.23 6.73 C66.82 11.12, 71.24 23.66, 74.68 33.48 C78.12 43.3, 80.14 54.23, 81.88 65.65 C83.62 77.06, 86.35 89.75, 85.12 101.96 C83.89 114.16, 78.43 129.13, 74.51 138.87 C70.58 148.62, 67.23 155.58, 61.58 160.43 C55.94 165.28, 46.61 167.81, 40.65 167.98 C34.69 168.14, 31.28 166.76, 25.82 161.44 C20.36 156.12, 12.31 145.9, 7.89 136.07 C3.47 126.24, 0.76 114.13, -0.7 102.46 C-2.17 90.8, -2.74 77.44, -0.89 66.06 C0.95 54.67, 5.94 44.03, 10.37 34.15 C14.8 24.27, 20.55 12.51, 25.69 6.8 C30.83 1.09, 32.27 -7.43, 41.2 -0.12 C50.14 7.18, 72.32 32.6, 79.3 50.64 C86.27 68.69, 83.66 107.49, 83.08 108.13 M76.01 28.03 C80.46 35.55, 78.15 49.99, 79.98 61.28 C81.8 72.57, 87.28 84.41, 86.96 95.77 C86.64 107.13, 82.24 119.34, 78.06 129.43 C73.88 139.52, 67.43 149.48, 61.89 156.29 C56.36 163.11, 50.98 169.23, 44.86 170.32 C38.74 171.41, 30.87 167.32, 25.18 162.83 C19.49 158.34, 14.77 151.85, 10.72 143.37 C6.68 134.89, 2.93 123.74, 0.89 111.94 C-1.14 100.15, -3.01 85.49, -1.48 72.61 C0.06 59.73, 6.15 44.5, 10.11 34.66 C14.06 24.82, 17.52 19, 22.28 13.55 C27.04 8.11, 32.88 3.03, 38.67 1.99 C44.45 0.96, 50.72 2.75, 56.99 7.37 C63.26 11.99, 74.09 26.46, 76.31 29.73 C78.53 33.01, 70.9 26.11, 70.3 27.02" stroke="transparent" stroke-width="4" fill="none"></path></g><g stroke-linecap="round" transform="translate(126.6216500149585 89.45136402144044) rotate(148.20108717570625 42.32614515021669 84.64037886818892)"><path d="M41.44 -1.29 C47.02 -3.33, 52.32 0.5, 57.41 5.68 C62.51 10.85, 67.57 20.21, 71.99 29.76 C76.41 39.31, 82.12 51.23, 83.93 62.99 C85.73 74.76, 84.3 88.61, 82.82 100.32 C81.34 112.03, 78.6 123.35, 75.04 133.25 C71.47 143.14, 66.16 153.6, 61.42 159.68 C56.68 165.75, 52.15 169.16, 46.6 169.69 C41.05 170.22, 34.34 167.63, 28.11 162.87 C21.89 158.1, 13.94 150.12, 9.27 141.1 C4.6 132.07, 1.25 120.23, 0.08 108.71 C-1.08 97.18, 1.19 84.39, 2.27 71.97 C3.35 59.55, 3.22 44.42, 6.54 34.2 C9.85 23.98, 15.57 16.37, 22.14 10.66 C28.71 4.94, 40.94 1.04, 45.96 -0.08 C50.98 -1.21, 52.17 2.6, 52.28 3.91 M25.66 6.57 C30.94 1.32, 42.21 -1.78, 48.82 -0.23 C55.43 1.31, 60.09 8.68, 65.34 15.84 C70.6 22.99, 77.63 32.32, 80.35 42.71 C83.07 53.11, 81.24 66.07, 81.65 78.19 C82.06 90.31, 84.75 103.99, 82.81 115.41 C80.86 126.83, 74.38 138.02, 69.96 146.7 C65.55 155.38, 61.26 163.94, 56.31 167.47 C51.36 171.01, 46.74 170.13, 40.25 167.92 C33.76 165.72, 23.36 161.03, 17.34 154.24 C11.32 147.45, 6.69 136.89, 4.13 127.21 C1.57 117.52, 2.14 107.96, 1.99 96.15 C1.83 84.34, 0.99 68.04, 3.2 56.35 C5.41 44.66, 11.54 34.53, 15.24 26.04 C18.95 17.55, 22.74 8.49, 25.45 5.4 C28.17 2.32, 31.13 6.27, 31.52 7.52" stroke="none" stroke-width="0" fill="#ff1e4d"></path><path d="M16.3 18.93 C20.17 11.21, 26.09 4.77, 32.44 1.88 C38.79 -1.01, 48.38 -1.72, 54.41 1.61 C60.44 4.93, 64.07 13.77, 68.61 21.81 C73.15 29.85, 79.32 39.19, 81.67 49.85 C84.03 60.51, 82.76 73.43, 82.74 85.77 C82.73 98.11, 84.32 113.09, 81.58 123.89 C78.83 134.7, 71.75 143.56, 66.28 150.62 C60.8 157.67, 54.82 163.6, 48.74 166.23 C42.67 168.86, 35.23 168.91, 29.82 166.41 C24.41 163.91, 20.3 159.38, 16.26 151.21 C12.23 143.04, 8.46 128.9, 5.6 117.38 C2.74 105.86, -0.46 93.97, -0.89 82.08 C-1.32 70.19, -1.47 58.56, 3.01 46.05 C7.49 33.54, 21.06 14.01, 26.01 7.01 C30.95 0.01, 32.3 3.01, 32.69 4.04 M70.25 28.06 C74.73 35.22, 82.95 46.5, 85.4 57.4 C87.86 68.31, 86.56 81.42, 84.99 93.51 C83.41 105.6, 79.55 119.07, 75.93 129.95 C72.3 140.82, 68.51 152.36, 63.22 158.76 C57.94 165.16, 50.32 167.32, 44.23 168.34 C38.14 169.36, 32.29 168.73, 26.69 164.86 C21.09 161, 15.05 154.14, 10.62 145.16 C6.18 136.18, 1.32 123.41, 0.08 110.98 C-1.16 98.55, 1.82 82.42, 3.18 70.58 C4.54 58.73, 5.39 49.4, 8.25 39.9 C11.1 30.4, 15.36 19.9, 20.31 13.56 C25.26 7.22, 31.27 2.74, 37.94 1.86 C44.61 0.97, 54.89 4.34, 60.34 8.24 C65.79 12.14, 68.2 21.63, 70.63 25.25 C73.06 28.87, 75.31 28.95, 74.9 29.97" stroke="transparent" stroke-width="4" fill="none"></path></g><g stroke-linecap="round" transform="translate(80.70146012044461 89.45136402144044) rotate(206.13100054493836 42.32614515021669 84.64037886818892)"><path d="M38.05 -0.46 C43.23 -2.11, 49.84 2.53, 55.87 7.43 C61.91 12.32, 69.98 19.93, 74.25 28.89 C78.53 37.85, 80.16 49.88, 81.5 61.2 C82.85 72.53, 83.27 84.85, 82.34 96.86 C81.4 108.86, 78.72 122.97, 75.89 133.23 C73.06 143.49, 70.12 152.46, 65.38 158.42 C60.65 164.38, 54.14 168.17, 47.48 169 C40.81 169.84, 31.67 167.79, 25.39 163.43 C19.1 159.06, 13.39 151.53, 9.76 142.81 C6.12 134.08, 5.34 123.12, 3.59 111.09 C1.83 99.05, -1.45 82.92, -0.77 70.59 C-0.08 58.26, 4.2 47.07, 7.67 37.11 C11.14 27.14, 12.68 16.68, 20.05 10.81 C27.41 4.95, 44.21 1.18, 51.86 1.92 C59.51 2.66, 65.98 13.54, 65.94 15.26 M52.31 0.86 C58.67 2.05, 63.29 11.86, 68.25 19.86 C73.22 27.86, 79.83 37.96, 82.1 48.86 C84.37 59.76, 81.99 73.06, 81.89 85.25 C81.79 97.43, 83.92 110.94, 81.49 121.98 C79.07 133.02, 72.12 143.55, 67.36 151.48 C62.59 159.4, 58.02 166.96, 52.92 169.52 C47.82 172.07, 43.17 170.04, 36.76 166.83 C30.34 163.61, 20.16 157.85, 14.43 150.22 C8.7 142.59, 4.49 131.25, 2.38 121.06 C0.26 110.87, 1.39 100.98, 1.75 89.1 C2.1 77.22, 1.83 61.09, 4.51 49.78 C7.2 38.48, 13.8 29, 17.85 21.26 C21.91 13.52, 22.9 6.43, 28.84 3.36 C34.77 0.3, 50.19 2.85, 53.46 2.87 C56.74 2.89, 49.51 2.78, 48.5 3.5" stroke="none" stroke-width="0" fill="#ff1e4d"></path><path d="M12.44 21.83 C16.7 12.62, 26.08 5.37, 32.07 2.23 C38.05 -0.91, 42.44 0.81, 48.34 2.99 C54.25 5.17, 62.64 8.74, 67.49 15.3 C72.35 21.86, 74.34 31.53, 77.47 42.34 C80.59 53.16, 85.83 68.03, 86.25 80.19 C86.66 92.35, 82.88 104.28, 79.96 115.29 C77.05 126.31, 73.37 137.86, 68.74 146.28 C64.11 154.69, 57.53 161.83, 52.17 165.79 C46.8 169.74, 41.93 172.34, 36.53 170.03 C31.14 167.73, 25.14 159.35, 19.78 151.93 C14.42 144.51, 7.96 135.87, 4.39 125.51 C0.82 115.14, -1.63 102.02, -1.66 89.75 C-1.68 77.48, -0.08 65.58, 4.24 51.87 C8.57 38.17, 18.22 16.16, 24.29 7.52 C30.37 -1.13, 39.92 -1.48, 40.7 0 M59.14 3.39 C65.42 5.3, 69.45 13.42, 73.04 22.06 C76.63 30.7, 78.89 42.96, 80.67 55.2 C82.45 67.45, 84.42 83.21, 83.71 95.53 C83 107.86, 79.66 118.83, 76.41 129.16 C73.15 139.48, 69.26 150.5, 64.19 157.48 C59.12 164.46, 52.31 169.79, 46 171.04 C39.69 172.29, 31.49 169.83, 26.34 164.99 C21.2 160.16, 18.93 150.42, 15.12 142.03 C11.32 133.64, 6.05 125.52, 3.5 114.64 C0.95 103.77, -0.56 89.05, -0.18 76.78 C0.2 64.52, 1.92 51.24, 5.76 41.04 C9.6 30.85, 17.93 22.57, 22.85 15.62 C27.76 8.68, 29.25 0.78, 35.25 -0.62 C41.25 -2.03, 55.67 6.18, 58.85 7.2 C62.02 8.22, 55.1 4.83, 54.31 5.51" stroke="transparent" stroke-width="4" fill="none"></path></g><g stroke-linecap="round" transform="translate(56.42181948656071 49.337175148071765) rotate(269.3634064240369 42.32614515021669 84.64037886818892)"><path d="M12.68 22.44 C16.98 14.28, 26.08 8.18, 32.09 4.94 C38.09 1.71, 43.15 1.2, 48.71 3.04 C54.26 4.88, 60.5 8.89, 65.41 16 C70.32 23.11, 74.68 34.77, 78.18 45.69 C81.69 56.61, 85.62 69.48, 86.44 81.54 C87.27 93.59, 86.11 106.86, 83.13 118.01 C80.16 129.16, 73.78 140.29, 68.58 148.42 C63.37 156.54, 57.29 163.29, 51.92 166.76 C46.56 170.23, 42.34 171.8, 36.38 169.25 C30.42 166.7, 21.33 158.88, 16.16 151.45 C10.99 144.01, 8.24 135.27, 5.38 124.65 C2.51 114.02, -0.44 100.09, -1.01 87.69 C-1.59 75.29, -4.1 64.83, 1.93 50.24 C7.97 35.64, 26.03 7.06, 35.19 0.12 C44.34 -6.82, 56.67 7.32, 56.85 8.59 M67.54 18.8 C72.7 25.2, 79.3 36.51, 81.68 47.28 C84.07 58.06, 81.83 71.29, 81.86 83.46 C81.89 95.64, 84.15 109.2, 81.85 120.34 C79.55 131.49, 72.71 142.2, 68.03 150.31 C63.35 158.43, 58.85 166.25, 53.78 169.05 C48.72 171.86, 44.07 170.12, 37.63 167.16 C31.19 164.19, 20.96 158.7, 15.15 151.28 C9.34 143.86, 5.02 132.7, 2.79 122.63 C0.57 112.57, 1.55 102.75, 1.78 90.88 C2.01 79.01, 1.59 62.83, 4.16 51.42 C6.72 40.01, 13.21 30.35, 17.18 22.42 C21.15 14.49, 22.08 7.14, 27.98 3.82 C33.88 0.51, 46.39 0.47, 52.59 2.54 C58.78 4.6, 63.19 14.19, 65.13 16.22 C67.07 18.24, 64.26 13.07, 64.2 14.67" stroke="none" stroke-width="0" fill="#ff1e4d"></path><path d="M78.87 36.14 C82.76 45.32, 82.4 61.91, 83.16 74.15 C83.92 86.4, 85.39 98.46, 83.42 109.63 C81.45 120.79, 75.37 132.1, 71.35 141.15 C67.33 150.19, 64.94 159.54, 59.3 163.9 C53.66 168.27, 44.2 168.59, 37.52 167.33 C30.84 166.07, 24.57 162.25, 19.21 156.34 C13.85 150.43, 8.27 141.45, 5.36 131.87 C2.44 122.3, 1.97 111.25, 1.72 98.87 C1.47 86.49, 2.39 69.63, 3.85 57.6 C5.32 45.58, 6.93 35.3, 10.51 26.7 C14.08 18.11, 19.26 10.52, 25.29 6.04 C31.32 1.56, 40.52 -1.19, 46.69 -0.17 C52.85 0.86, 56.25 4.06, 62.26 12.19 C68.26 20.32, 79.04 39.45, 82.71 48.62 C86.39 57.78, 85.1 66.6, 84.3 67.19 M65.4 9.92 C69.94 14.94, 73.37 26.62, 76.42 37.63 C79.47 48.65, 82.99 63.7, 83.69 76.02 C84.39 88.34, 82.61 100.01, 80.63 111.56 C78.64 123.1, 75.99 136.1, 71.81 145.28 C67.62 154.47, 61.5 162.66, 55.51 166.66 C49.52 170.67, 41.32 171.38, 35.86 169.3 C30.4 167.22, 27.45 160.35, 22.77 154.17 C18.08 147.99, 11.58 141.86, 7.75 132.21 C3.93 122.57, 0.87 108.56, -0.16 96.3 C-1.2 84.04, -1.02 70.06, 1.54 58.64 C4.11 47.23, 11.2 36.97, 15.23 27.82 C19.26 18.67, 20.05 7.91, 25.73 3.75 C31.42 -0.4, 43.14 1.54, 49.33 2.89 C55.52 4.24, 60.54 10.23, 62.88 11.86 C65.22 13.49, 63.45 11.29, 63.34 12.65" stroke="transparent" stroke-width="4" fill="none"></path></g><g stroke-linecap="round" transform="translate(83.34055149368032 7.111713176099784) rotate(326.04630344713877 42.32614515021669 84.64037886818892)"><path d="M28.6 7.18 C33.93 1.96, 39.45 1.24, 45.08 2.03 C50.71 2.83, 57.16 5.72, 62.36 11.94 C67.57 18.17, 72.35 29.01, 76.32 39.39 C80.28 49.77, 84.77 62.28, 86.12 74.24 C87.48 86.2, 86.91 99.64, 84.43 111.16 C81.95 122.68, 76.07 134.48, 71.23 143.38 C66.39 152.27, 60.62 160.04, 55.41 164.52 C50.21 169, 46.04 171.76, 40.01 170.26 C33.98 168.76, 24.67 162.05, 19.21 155.5 C13.75 148.95, 10.56 141.03, 7.25 130.95 C3.93 120.86, 0.4 107.3, -0.7 94.99 C-1.8 82.68, -1.47 68.8, 0.64 57.09 C2.74 45.38, 6.6 33.74, 11.93 24.74 C17.26 15.74, 28 7.2, 32.6 3.09 C37.2 -1.01, 39.06 -1.28, 39.53 0.1 M33.52 5.85 C38.45 1.63, 41.71 2.12, 47.45 4.35 C53.2 6.57, 63.01 12.07, 68.02 19.21 C73.03 26.35, 74.73 36.34, 77.51 47.2 C80.3 58.06, 83.64 72.63, 84.7 84.38 C85.76 96.13, 86.72 107.29, 83.86 117.69 C81 128.1, 73.02 139.09, 67.53 146.82 C62.05 154.55, 56.18 160.21, 50.96 164.07 C45.73 167.93, 41.68 171.92, 36.18 170 C30.69 168.08, 22.73 159.96, 17.99 152.55 C13.24 145.14, 11.18 136.21, 7.69 125.54 C4.21 114.86, -2.72 100.75, -2.94 88.5 C-3.16 76.24, 3.74 63.31, 6.36 52 C8.97 40.7, 8.98 29.31, 12.75 20.67 C16.52 12.03, 25.8 2.37, 28.97 0.16 C32.14 -2.04, 31.07 5.82, 31.75 7.44" stroke="none" stroke-width="0" fill="#ff1e4d"></path><path d="M46.88 2.55 C52.6 2.96, 61.3 7.43, 66.27 13.64 C71.25 19.85, 73.42 29.19, 76.73 39.79 C80.04 50.39, 85.51 65.12, 86.14 77.25 C86.77 89.37, 83.22 101.38, 80.5 112.55 C77.78 123.72, 74.31 135.54, 69.82 144.27 C65.33 153, 58.88 160.55, 53.58 164.92 C48.27 169.28, 43.42 172.36, 37.99 170.48 C32.56 168.59, 26.47 160.66, 21 153.59 C15.52 146.52, 8.88 138.21, 5.13 128.06 C1.37 117.91, -1.31 104.94, -1.55 92.69 C-1.78 80.45, 1.5 66.03, 3.7 54.62 C5.9 43.21, 7.13 32.99, 11.64 24.26 C16.16 15.53, 23.69 5.55, 30.81 2.24 C37.94 -1.07, 49.89 3.89, 54.4 4.41 C58.91 4.93, 58.12 3.96, 57.86 5.34 M21.61 7.49 C26.28 1.8, 34.75 1.37, 40.85 1.3 C46.96 1.23, 52.66 2, 58.24 7.07 C63.81 12.14, 70.28 21.81, 74.31 31.71 C78.33 41.62, 81.15 54.73, 82.4 66.51 C83.66 78.29, 82.44 91.19, 81.82 102.4 C81.2 113.61, 81.9 123.78, 78.69 133.77 C75.48 143.77, 68.57 156.15, 62.57 162.36 C56.56 168.56, 49.12 170.89, 42.68 171.02 C36.24 171.15, 28.92 168.07, 23.93 163.13 C18.94 158.19, 16.91 151.26, 12.73 141.39 C8.55 131.52, 0.4 115.84, -1.16 103.9 C-2.72 91.97, 2.01 81.74, 3.37 69.79 C4.72 57.85, 3.79 42.63, 6.96 32.26 C10.12 21.89, 19.62 11.16, 22.37 7.57 C25.12 3.98, 23.02 8.83, 23.44 10.73" stroke="transparent" stroke-width="4" fill="none"></path></g><g stroke-linecap="round" transform="translate(91.88632706633143 80.14009000200303) rotate(0 55.157009700881645 53.045736602283796)"><path d="M53.53 -1.34 C62.01 -2.69, 71.24 0.46, 78.89 4.94 C86.53 9.42, 94.02 17.71, 99.4 25.54 C104.78 33.37, 110.54 43.08, 111.17 51.91 C111.81 60.74, 107.79 70.98, 103.19 78.52 C98.6 86.06, 91.32 92.37, 83.6 97.12 C75.89 101.88, 65.46 106.39, 56.9 107.03 C48.33 107.68, 39.87 105.14, 32.22 100.99 C24.56 96.85, 16.59 89.64, 10.98 82.15 C5.37 74.66, -0.34 64.8, -1.45 56.06 C-2.57 47.32, -0.38 37.38, 4.28 29.71 C8.95 22.05, 17 15.21, 26.55 10.07 C36.1 4.94, 53.78 -0.06, 61.58 -1.07 C69.37 -2.09, 73.43 2.95, 73.34 3.99 M15.9 13.22 C22.29 7.02, 35.72 3.45, 44.49 1.94 C53.27 0.44, 59.77 1.84, 68.56 4.21 C77.34 6.57, 90.4 9.49, 97.2 16.11 C104 22.73, 107.2 34.69, 109.34 43.93 C111.48 53.17, 113.26 63.09, 110.04 71.56 C106.81 80.03, 96.99 88.76, 90 94.74 C83.01 100.71, 76.95 105.55, 68.08 107.41 C59.21 109.26, 45.63 108.41, 36.76 105.86 C27.89 103.31, 20.31 99.04, 14.87 92.09 C9.43 85.13, 6.62 73.56, 4.15 64.13 C1.67 54.71, -1.83 44.22, 0.02 35.52 C1.87 26.81, 11.91 14.95, 15.25 11.89 C18.59 8.84, 18.91 16.19, 20.05 17.2" stroke="none" stroke-width="0" fill="#ffd710"></path><path d="M27.23 7.42 C34.15 1.89, 42.7 -1.2, 52.06 -1.29 C61.41 -1.38, 75.21 2.7, 83.34 6.89 C91.47 11.08, 96.64 16.57, 100.83 23.83 C105.02 31.09, 108.36 41.35, 108.49 50.45 C108.62 59.54, 105.52 70.07, 101.61 78.38 C97.71 86.7, 92.27 96.01, 85.05 100.33 C77.83 104.65, 67.84 104.46, 58.29 104.31 C48.74 104.16, 36.4 103.33, 27.73 99.43 C19.06 95.53, 10.73 88.49, 6.28 80.88 C1.84 73.27, 1.19 62.56, 1.05 53.78 C0.9 45.01, -5.12 37.43, 5.42 28.23 C15.96 19.02, 49.15 0.03, 64.28 -1.46 C79.41 -2.95, 96.5 18.38, 96.21 19.28 M85 5.16 C92.11 8.91, 98.06 17.93, 102.16 26.41 C106.26 34.89, 109.93 47.04, 109.62 56.04 C109.31 65.04, 105.13 72.93, 100.29 80.41 C95.45 87.89, 88.56 96.26, 80.58 100.92 C72.59 105.57, 61.79 108.72, 52.38 108.34 C42.97 107.96, 31.29 104.05, 24.11 98.61 C16.93 93.17, 13.12 83.22, 9.3 75.71 C5.48 68.19, 1.42 61.66, 1.18 53.51 C0.94 45.36, 3.32 34.42, 7.85 26.81 C12.38 19.19, 19.69 11.83, 28.37 7.82 C37.05 3.81, 51.01 2.91, 59.92 2.75 C68.83 2.58, 77.48 5.42, 81.86 6.84 C86.23 8.27, 86.54 10.5, 86.16 11.3" stroke="transparent" stroke-width="4" fill="none"></path></g><g stroke-linecap="round"><g transform="translate(205.2853850385145 135.4921265160433) rotate(0 -68.57544016570773 -59.345114735996276)"><path d="M-1.53 -1.46 C-5.79 -10, -12.94 -32.03, -25.22 -49.11 C-37.51 -66.19, -59.64 -92.71, -75.26 -103.92 C-90.87 -115.13, -108.69 -118.04, -118.92 -116.36 C-129.15 -114.68, -134.28 -105.17, -136.66 -93.84 C-139.03 -82.51, -133.82 -55.94, -133.18 -48.39 M2.84 3.91 C-1.61 -5.68, -12.74 -35.9, -26.09 -53.59 C-39.45 -71.28, -61.73 -90.99, -77.27 -102.24 C-92.81 -113.5, -108.9 -122.5, -119.33 -121.13 C-129.76 -119.77, -137.9 -106.96, -139.86 -94.04 C-141.83 -81.11, -132.37 -51.84, -131.13 -43.58" stroke="#002d4e" stroke-width="4" fill="none"></path></g></g><mask></mask><g stroke-linecap="round"><g transform="translate(129.36142456645393 104.4197306358833) rotate(0 17.945821338084897 28.76609596840194)"><path d="M1.4 -0.55 C-8.34 4.44, -5.51 14.49, -20.37 24.07 M-0.17 1.27 C-2.1 7.34, -9.46 10.25, -17.54 25.72 M-20.17 28.82 C-8.14 33.62, -2.52 51.08, 1.88 55.4 M-16.93 25.56 C-11.54 37.8, -4.52 50.99, -0.62 58.7 M3.56 56.53 C10.81 63.19, 16.58 61.17, 37.73 59.04 M2.52 60.93 C11.22 58.19, 26.77 60.75, 33.65 59.06 M35 59.34 C43.27 48.5, 43.08 41.65, 49.61 32.29 M36.49 57.79 C40.42 47.78, 48.12 40.42, 53.86 30.95 M50.12 30.01 C51.8 22.44, 40.62 7.26, 36.08 -2.06 M52.31 29.08 C47.95 20.39, 45.76 13.75, 33.52 -0.86 M39.07 0.75 C26.73 -4.92, 14.01 0.23, 3.55 -2.98 M37.19 -2.65 C20.69 -1.97, 7.66 -1.42, 1.15 1.46" stroke="#002d4e" stroke-width="4" fill="none"></path></g></g><mask></mask><g stroke-linecap="round"><g transform="translate(158.56471123326992 173.37010106725666) rotate(299.3806078612909 -68.57544016570773 -59.345114735996276)"><path d="M-0.39 -2.65 C-5.74 -10.77, -17.24 -30.98, -29.57 -47.76 C-41.9 -64.54, -59.39 -91.1, -74.37 -103.34 C-89.36 -115.58, -108.66 -122.71, -119.45 -121.23 C-130.25 -119.74, -137.23 -107.3, -139.16 -94.44 C-141.09 -81.58, -132.9 -52.62, -131.06 -44.07 M-4.04 2.09 C-8.72 -6.87, -12.18 -34.27, -24.16 -51.51 C-36.14 -68.75, -59.92 -89.94, -75.91 -101.35 C-91.91 -112.77, -110.29 -121.07, -120.15 -120 C-130.01 -118.94, -133.8 -107.37, -135.08 -94.96 C-136.37 -82.55, -128.08 -53.91, -127.85 -45.56" stroke="#002d4e" stroke-width="4" fill="none"></path></g></g><mask></mask><g stroke-linecap="round"><g transform="translate(170.94970616949286 231.1325859270787) rotate(240.25104689124984 -68.57544016570773 -59.345114735996276)"><path d="M-1.83 2.33 C-6.3 -5.92, -14.68 -34.46, -27.25 -52.15 C-39.82 -69.84, -61.92 -92.28, -77.23 -103.81 C-92.54 -115.34, -109.08 -123.66, -119.1 -121.36 C-129.13 -119.05, -135.89 -103.03, -137.39 -89.99 C-138.89 -76.96, -128.78 -50.31, -128.1 -43.16 M2.38 1.12 C-2.39 -6.59, -16.88 -32.45, -29.22 -49.65 C-41.56 -66.85, -56.61 -90.32, -71.68 -102.08 C-86.74 -113.84, -108.06 -122.52, -119.61 -120.2 C-131.16 -117.87, -138.94 -100.78, -140.99 -88.11 C-143.05 -75.43, -133.24 -51.78, -131.93 -44.16" stroke="#002d4e" stroke-width="4" fill="none"></path></g></g><mask></mask><g stroke-linecap="round"><g transform="translate(227.01849044279516 252.90076791442516) rotate(179.63165475254075 -68.57544016570773 -59.345114735996276)"><path d="M0.49 -2.07 C-4.22 -11.23, -17.21 -35.65, -30.11 -52.63 C-43 -69.6, -62.34 -93.22, -76.88 -103.94 C-91.42 -114.65, -107.74 -119.39, -117.33 -116.91 C-126.93 -114.44, -131.77 -100.71, -134.43 -89.08 C-137.09 -77.45, -133.87 -53.92, -133.3 -47.12 M-2.68 2.98 C-6.38 -4.69, -13.58 -32.83, -24.99 -50.37 C-36.39 -67.92, -55.82 -90.34, -71.14 -102.27 C-86.45 -114.21, -106 -123.14, -116.88 -121.98 C-127.76 -120.83, -134.03 -108.73, -136.43 -95.34 C-138.84 -81.95, -132.46 -50.16, -131.31 -41.62" stroke="#002d4e" stroke-width="4" fill="none"></path></g></g><mask></mask><g stroke-linecap="round"><g transform="translate(272.2861758804793 211.72107475284793) rotate(119.06730601935259 -68.57544016570773 -59.345114735996276)"><path d="M-2.36 -2.54 C-7.4 -10.99, -17.63 -36.59, -29.75 -52.75 C-41.88 -68.91, -61.01 -88.95, -75.11 -99.5 C-89.21 -110.04, -103.62 -117.08, -114.38 -116 C-125.13 -114.92, -136.86 -104.33, -139.63 -93.04 C-142.4 -81.75, -132.53 -56.37, -130.99 -48.27 M1.55 2.26 C-2.65 -5.76, -11.34 -32.85, -24.44 -50.57 C-37.54 -68.29, -60.96 -92.39, -77.05 -104.06 C-93.13 -115.73, -111.16 -122.45, -120.96 -120.57 C-130.75 -118.7, -134.68 -105.67, -135.81 -92.81 C-136.95 -79.94, -128.95 -51.06, -127.76 -43.39" stroke="#002d4e" stroke-width="4" fill="none"></path></g></g><mask></mask><g stroke-linecap="round"><g transform="translate(261.87756618550156 152.48237826873583) rotate(58.447913880643526 -68.57544016570773 -59.345114735996276)"><path d="M-2.01 -2.66 C-6.28 -10.29, -16.3 -32.32, -27.99 -48.31 C-39.68 -64.3, -56.89 -86.64, -72.15 -98.58 C-87.42 -110.52, -108.71 -120.69, -119.58 -119.96 C-130.44 -119.23, -135.53 -106.78, -137.33 -94.19 C-139.13 -81.59, -131.37 -52.14, -130.38 -44.41 M2.09 2.06 C-2.36 -6.14, -17.92 -34.9, -30.35 -52.36 C-42.78 -69.81, -57.49 -91.7, -72.48 -102.65 C-87.48 -113.6, -108.94 -119.39, -120.34 -118.04 C-131.74 -116.7, -139.82 -106.57, -140.9 -94.57 C-141.97 -82.58, -128.59 -54.61, -126.82 -46.08" stroke="#002d4e" stroke-width="4" fill="none"></path></g></g><mask></mask><g stroke-linecap="round"><g transform="translate(140.61104391271692 122.33171746918333) rotate(0 6.696201991822818 10.326290860452445)"><path d="M0.75 1.15 C-0.44 1.2, -3.6 4.42, -7.52 10.04 M0.2 0.49 C-2.88 3.9, -4.06 7.08, -7.05 10.18 M-7.74 9.14 C-4.63 14, -0.73 18, -0.08 20.96 M-6.93 9.96 C-3.67 13.11, -1.78 17.93, 0.1 21.61 M1.36 20.19 C3.23 22.2, 8.26 20.44, 12.62 21.04 M0.15 21.72 C2.93 20.93, 6.35 20.72, 13.52 21.72 M11.8 21.25 C14.86 17.67, 19.72 13, 21.13 10.4 M13.16 21.96 C14.98 18.62, 15.56 16.69, 19.9 10.08 M19.92 9.7 C17.73 8.11, 16.62 3.15, 14.01 -0.03 M20.36 11.07 C17.45 8.04, 16.33 4.94, 12.71 -0.3 M12.84 -1.81 C8.34 -1.43, 4.19 0.58, 0.97 0.35 M12.54 -0.6 C9.95 -0.21, 5.01 -0.21, -0.53 -0.6" stroke="#002d4e" stroke-width="4" fill="none"></path></g></g><mask></mask></svg>